<svg width="149" height="110" viewBox="0 0 149 110" fill="none" xmlns="http://www.w3.org/2000/svg">
<g clip-path="url(#clip0_41_2160)">
<path d="M119.006 106.541C116.58 109.118 114.28 110.78 112.465 112.093C91.1248 127.53 65.8741 123.03 60.5076 121.931C52.5827 120.309 37.2643 117.171 26.1896 104.043C9.43433 84.1783 12.0435 52.8834 25.0399 32.2248C27.4173 28.4463 39.9749 7.47327 65.4976 4.10965C80.9438 2.0741 98.9489 6.1797 111.988 17.1925C139.358 40.3094 137.41 87.0096 119.006 106.541Z" fill="url(#paint0_linear_41_2160)" fill-opacity="0.23"/>
<path d="M134.07 102.477H124.2V102.552H134.07V102.477Z" fill="#EBEBEB"/>
<path d="M98.7035 103.288H96.1139V103.363H98.7035V103.288Z" fill="#EBEBEB"/>
<path d="M123.903 99.7088H118.184V99.7834H123.903V99.7088Z" fill="#EBEBEB"/>
<path d="M28.5036 100.21H15.6329V100.284H28.5036V100.21Z" fill="#EBEBEB"/>
<path d="M33.0452 100.21H31.1589V100.284H33.0452V100.21Z" fill="#EBEBEB"/>
<path d="M67.0946 101.469H39.178V101.543H67.0946V101.469Z" fill="#EBEBEB"/>
<path d="M70.6258 84.3733H13.088C12.6367 84.3733 12.2039 84.1938 11.8848 83.8744C11.5657 83.555 11.3864 83.1217 11.3864 82.67V1.70325C11.3903 1.25411 11.5713 0.824694 11.89 0.508486C12.2087 0.192279 12.6393 0.0148754 13.088 0.0148926H70.6258C71.0771 0.0148926 71.5099 0.194344 71.829 0.513771C72.1481 0.833197 72.3274 1.26643 72.3274 1.71817V82.67C72.3274 83.1217 72.1481 83.555 71.829 83.8744C71.5099 84.1938 71.0771 84.3733 70.6258 84.3733ZM13.088 0.0745522C12.6567 0.0753407 12.2433 0.247188 11.9383 0.552458C11.6334 0.857728 11.4617 1.27154 11.4609 1.70325V82.67C11.4617 83.1017 11.6334 83.5155 11.9383 83.8208C12.2433 84.1261 12.6567 84.2979 13.088 84.2987H70.6258C71.0571 84.2979 71.4705 84.1261 71.7755 83.8208C72.0805 83.5155 72.2521 83.1017 72.2529 82.67V1.70325C72.2521 1.27154 72.0805 0.857728 71.7755 0.552458C71.4705 0.247188 71.0571 0.0753407 70.6258 0.0745522H13.088Z" fill="#EBEBEB"/>
<path d="M135.086 84.3733H77.5426C77.0915 84.3725 76.6592 84.1928 76.3403 83.8735C76.0213 83.5543 75.8418 83.1215 75.841 82.67V1.70325C75.8457 1.25435 76.027 0.825388 76.3455 0.509348C76.664 0.193307 77.0941 0.0156527 77.5426 0.0148926H135.086C135.534 0.0164451 135.963 0.194542 136.281 0.510581C136.598 0.82662 136.778 1.25514 136.782 1.70325V82.67C136.782 83.1207 136.604 83.553 136.286 83.8723C135.968 84.1916 135.537 84.3717 135.086 84.3733ZM77.5426 0.0745522C77.1113 0.0753407 76.6979 0.247188 76.3929 0.552458C76.088 0.857728 75.9163 1.27154 75.9155 1.70325V82.67C75.9163 83.1017 76.088 83.5155 76.3929 83.8208C76.6979 84.1261 77.1113 84.2979 77.5426 84.2987H135.086C135.518 84.2979 135.931 84.1261 136.236 83.8208C136.541 83.5155 136.713 83.1017 136.713 82.67V1.70325C136.713 1.27154 136.541 0.857728 136.236 0.552458C135.931 0.247188 135.518 0.0753407 135.086 0.0745522H77.5426Z" fill="#EBEBEB"/>
<path d="M149 97.6773H-6.10352e-05V97.7519H149V97.6773Z" fill="#EBEBEB"/>
<path d="M78.7048 16.0812H87.3439V4.4745L78.7048 4.4745V16.0812Z" fill="#F0F0F0"/>
<path d="M77.9896 16.3198H86.6287V4.71309L77.9896 4.71309V16.3198Z" fill="#F5F5F5"/>
<path d="M88.8367 5.43799H86.0981V18.393H88.8367V5.43799Z" fill="#E0E0E0"/>
<path d="M83.9049 5.43799L77.6856 14.2318V18.396H86.0982V5.43799H83.9049Z" fill="#EBEBEB"/>
<path d="M88.3094 16.3198C88.3094 16.4862 88.2601 16.6488 88.1678 16.7872C88.0754 16.9255 87.9442 17.0333 87.7906 17.097C87.6371 17.1607 87.4681 17.1773 87.3051 17.1449C87.1421 17.1124 86.9923 17.0323 86.8748 16.9147C86.7573 16.797 86.6772 16.6471 86.6448 16.4839C86.6124 16.3208 86.629 16.1516 86.6926 15.9979C86.7562 15.8442 86.8639 15.7128 87.0021 15.6204C87.1403 15.528 87.3028 15.4786 87.469 15.4786C87.6919 15.4786 87.9056 15.5673 88.0632 15.725C88.2208 15.8828 88.3094 16.0967 88.3094 16.3198Z" fill="#FAFAFA"/>
<path d="M88.3094 8.48059H86.6287V13.9514H88.3094V8.48059Z" fill="#F0F0F0"/>
<path opacity="0.6" d="M88.3094 8.48059H86.6287V9.25318H88.3094V8.48059Z" fill="#FAFAFA"/>
<path d="M75.3611 15.1893V13.0803C75.4149 13.0803 75.4664 13.0589 75.5044 13.0209C75.5424 12.9829 75.5638 12.9313 75.5638 12.8775C75.5638 12.8237 75.5424 12.7721 75.5044 12.734C75.4664 12.696 75.4149 12.6746 75.3611 12.6746H72.9503V15.6039H75.3611C75.4161 15.6039 75.4687 15.5821 75.5076 15.5432C75.5464 15.5043 75.5682 15.4516 75.5682 15.3966C75.5682 15.3416 75.5464 15.2889 75.5076 15.25C75.4687 15.2111 75.4161 15.1893 75.3611 15.1893Z" fill="#EBEBEB"/>
<path d="M75.3614 13.0803H73.4899V15.1863H75.3614V13.0803Z" fill="#F5F5F5"/>
<path d="M73.8833 15.3921H67.3899C66.9429 15.3921 66.5823 14.8284 66.5823 14.1333C66.5823 13.4383 66.9429 12.8775 67.3899 12.8775H73.8833V15.3921Z" fill="#FAFAFA"/>
<path d="M73.8832 12.6747C71.7585 12.6747 69.6278 12.6389 67.503 12.6747C66.0488 12.7015 65.9683 15.4966 67.3957 15.595C68.3911 15.6606 69.4162 15.595 70.4145 15.595H73.8832C73.9369 15.595 73.9885 15.5736 74.0265 15.5356C74.0645 15.4975 74.0858 15.4459 74.0858 15.3921C74.0858 15.3384 74.0645 15.2868 74.0265 15.2487C73.9885 15.2107 73.9369 15.1893 73.8832 15.1893H67.8398C67.3719 15.1893 67.0381 15.1893 66.8593 14.6345C66.7044 14.1572 66.7521 13.1847 67.3898 13.0803C67.4632 13.0744 67.5369 13.0744 67.6103 13.0803H73.8832C73.9369 13.0803 73.9885 13.059 74.0265 13.0209C74.0645 12.9829 74.0858 12.9313 74.0858 12.8775C74.0858 12.8237 74.0645 12.7721 74.0265 12.7341C73.9885 12.696 73.9369 12.6747 73.8832 12.6747Z" fill="#E6E6E6"/>
<path d="M75.394 12.3406V10.4554C75.4378 10.4497 75.4781 10.4283 75.5072 10.3951C75.5364 10.3618 75.5525 10.3191 75.5525 10.2749C75.5525 10.2307 75.5364 10.1879 75.5072 10.1547C75.4781 10.1215 75.4378 10.1001 75.394 10.0944C74.6788 10.0944 73.9665 10.0944 73.2513 10.0944V12.6956H75.394C75.437 12.69 75.4766 12.6689 75.5053 12.6362C75.5339 12.6035 75.5497 12.5616 75.5497 12.5181C75.5497 12.4746 75.5339 12.4326 75.5053 12.4C75.4766 12.3673 75.437 12.3462 75.394 12.3406Z" fill="#EBEBEB"/>
<path d="M75.3822 10.4643H73.7194V12.3376H75.3822V10.4643Z" fill="#F5F5F5"/>
<path d="M74.0681 12.5195H68.2988C67.9025 12.5195 67.5806 12.0214 67.5806 11.4039C67.5806 10.7864 67.9025 10.2853 68.2988 10.2853H74.0681V12.5195Z" fill="#FAFAFA"/>
<path d="M74.068 10.1063C72.1816 10.1063 70.2893 10.0735 68.406 10.1063C67.1127 10.1302 67.0411 12.612 68.3106 12.6985C69.2046 12.7612 70.0986 12.6985 70.9926 12.6985H74.074C74.1214 12.6985 74.1668 12.6797 74.2004 12.6461C74.2339 12.6125 74.2527 12.567 74.2527 12.5195C74.2527 12.4721 74.2339 12.4265 74.2004 12.393C74.1668 12.3594 74.1214 12.3406 74.074 12.3406H68.71C68.2957 12.3406 68.0007 12.3406 67.8398 11.8454C67.6997 11.4248 67.7444 10.5597 68.3106 10.4673C68.3761 10.4613 68.4419 10.4613 68.5073 10.4673H74.0799C74.1237 10.4616 74.164 10.4402 74.1932 10.407C74.2224 10.3737 74.2385 10.331 74.2385 10.2868C74.2385 10.2426 74.2224 10.1998 74.1932 10.1666C74.164 10.1334 74.1237 10.112 74.0799 10.1063H74.068Z" fill="#E6E6E6"/>
<path d="M75.3611 18.0559V15.947C75.4103 15.941 75.4555 15.9172 75.4883 15.8801C75.5211 15.843 75.5392 15.7951 75.5392 15.7456C75.5392 15.6961 75.5211 15.6482 75.4883 15.6111C75.4555 15.574 75.4103 15.5502 75.3611 15.5443C74.5595 15.5443 73.7549 15.5443 72.9503 15.5443V18.4735H75.3611C75.4165 18.4735 75.4695 18.4515 75.5086 18.4124C75.5478 18.3732 75.5697 18.3201 75.5697 18.2647C75.5697 18.2093 75.5478 18.1562 75.5086 18.1171C75.4695 18.0779 75.4165 18.0559 75.3611 18.0559Z" fill="#EBEBEB"/>
<path d="M75.3614 15.947H73.4899V18.053H75.3614V15.947Z" fill="#F5F5F5"/>
<path d="M73.8833 18.2588H67.3899C66.9429 18.2588 66.5823 17.695 66.5823 17.003C66.5823 16.3109 66.9429 15.7441 67.3899 15.7441H73.8833V18.2588Z" fill="#FAFAFA"/>
<path d="M73.8832 15.5443C71.7585 15.5443 69.6278 15.5055 67.503 15.5443C66.0488 15.5681 65.9683 18.3632 67.3957 18.4616C68.3911 18.5302 69.4162 18.4616 70.4145 18.4616H73.8832C73.9369 18.4616 73.9885 18.4402 74.0265 18.4022C74.0645 18.3642 74.0858 18.3126 74.0858 18.2588C74.0858 18.205 74.0645 18.1534 74.0265 18.1153C73.9885 18.0773 73.9369 18.0559 73.8832 18.0559H67.8398C67.3719 18.0559 67.0381 18.0559 66.8593 17.5011C66.7044 17.0238 66.7521 16.0514 67.3898 15.947C67.4632 15.941 67.5369 15.941 67.6103 15.947H73.8832C73.9323 15.941 73.9776 15.9172 74.0104 15.8801C74.0432 15.843 74.0613 15.7952 74.0613 15.7456C74.0613 15.6961 74.0432 15.6482 74.0104 15.6112C73.9776 15.5741 73.9323 15.5503 73.8832 15.5443Z" fill="#E6E6E6"/>
<path d="M110.779 18.2886H38.2216V20.3916H110.779V18.2886Z" fill="#F5F5F5"/>
<path d="M106.869 25.5014V20.3916H109.42L106.869 25.5014Z" fill="#E0E0E0"/>
<path d="M108.144 25.5014L110.698 20.3916H109.42L106.869 25.5014H108.144Z" fill="#F5F5F5"/>
<path d="M42.0509 25.5014V20.3916H39.4971L42.0509 25.5014Z" fill="#E0E0E0"/>
<path d="M40.7725 25.5014L38.2216 20.3916H39.4971L42.0509 25.5014H40.7725Z" fill="#F5F5F5"/>
<path d="M102.679 12.7612V12.5703C102.696 11.8294 102.565 11.0927 102.294 10.4032C102.022 9.71378 101.616 9.0856 101.099 8.55558C100.581 8.02557 99.9634 7.60442 99.2811 7.31688C98.5989 7.02935 97.866 6.88123 97.1258 6.88123C96.3855 6.88123 95.6527 7.02935 94.9704 7.31688C94.2881 7.60442 93.6701 8.02557 93.1528 8.55558C92.6354 9.0856 92.2291 9.71378 91.9577 10.4032C91.6864 11.0927 91.5554 11.8294 91.5725 12.5703V18.3214H102.679V12.7612Z" fill="#F0F0F0"/>
<path d="M92.7884 12.5703C92.7884 13.4294 93.0429 14.2692 93.5198 14.9835C93.9967 15.6978 94.6745 16.2545 95.4675 16.5831C96.2605 16.9118 97.1331 16.9976 97.9748 16.8298C98.8166 16.662 99.5897 16.248 100.196 15.6403C100.803 15.0326 101.216 14.2584 101.383 13.4157C101.55 12.573 101.464 11.6997 101.135 10.9061C100.806 10.1126 100.25 9.43444 99.5357 8.95756C98.8217 8.48069 97.9826 8.22646 97.1243 8.22705C95.9741 8.22784 94.8712 8.68578 94.0582 9.5002C93.2451 10.3146 92.7884 11.4189 92.7884 12.5703Z" fill="#FAFAFA"/>
<path d="M97.1243 8.91312C96.034 8.91281 94.9838 9.32425 94.1833 10.0652C93.3828 10.8062 92.8911 11.8222 92.8063 12.9103C92.8063 12.7969 92.7884 12.6836 92.7884 12.5702C92.7732 11.9905 92.8742 11.4136 93.0853 10.8735C93.2965 10.3335 93.6136 9.84124 94.0178 9.42582C94.4221 9.01041 94.9054 8.68024 95.4392 8.4548C95.973 8.22936 96.5464 8.11322 97.1258 8.11322C97.7052 8.11322 98.2787 8.22936 98.8125 8.4548C99.3463 8.68024 99.8295 9.01041 100.234 9.42582C100.638 9.84124 100.955 10.3335 101.166 10.8735C101.377 11.4136 101.478 11.9905 101.463 12.5702C101.463 12.6836 101.463 12.7969 101.445 12.9103C101.36 11.8217 100.868 10.8053 100.067 10.0642C99.2661 9.32316 98.2151 8.91206 97.1243 8.91312Z" fill="#E6E6E6"/>
<path d="M94.3856 12.5673H96.6653V10.2823C96.6653 10.1605 96.7136 10.0436 96.7997 9.95749C96.8857 9.87134 97.0025 9.82294 97.1242 9.82294C97.2459 9.82294 97.3626 9.87134 97.4487 9.95749C97.5347 10.0436 97.5831 10.1605 97.5831 10.2823V13.0266C97.5835 13.0871 97.5719 13.147 97.549 13.2029C97.526 13.2588 97.4923 13.3096 97.4496 13.3524C97.4069 13.3951 97.3561 13.4289 97.3003 13.4519C97.2444 13.4748 97.1846 13.4864 97.1242 13.486H94.3856C94.2638 13.486 94.1471 13.4376 94.061 13.3515C93.975 13.2653 93.9266 13.1485 93.9266 13.0266C93.9266 12.9048 93.975 12.788 94.061 12.7018C94.1471 12.6157 94.2638 12.5673 94.3856 12.5673Z" fill="#E0E0E0"/>
<path d="M94.3856 13.0297C94.2638 13.0297 94.1471 12.9813 94.061 12.8951C93.975 12.809 93.9266 12.6921 93.9266 12.5703C93.9266 12.4484 93.975 12.3316 94.061 12.2454C94.1471 12.1593 94.2638 12.1109 94.3856 12.1109H97.1242C97.2459 12.1109 97.3626 12.1593 97.4487 12.2454C97.5347 12.3316 97.5831 12.4484 97.5831 12.5703C97.5831 12.6921 97.5347 12.809 97.4487 12.8951C97.3626 12.9813 97.2459 13.0297 97.1242 13.0297H94.3856Z" fill="#F5F5F5"/>
<path d="M96.6652 9.82595C96.6652 9.70412 96.7136 9.58728 96.7996 9.50113C96.8857 9.41498 97.0024 9.36658 97.1241 9.36658C97.2459 9.36658 97.3626 9.41498 97.4486 9.50113C97.5347 9.58728 97.5831 9.70412 97.5831 9.82595V12.5703C97.5831 12.6921 97.5347 12.809 97.4486 12.8951C97.3626 12.9813 97.2459 13.0297 97.1241 13.0297C97.0024 13.0297 96.8857 12.9813 96.7996 12.8951C96.7136 12.809 96.6652 12.6921 96.6652 12.5703V9.82595Z" fill="#EBEBEB"/>
<path d="M62.8663 18.3393H54.6862L55.5921 7.95258H63.7752L62.8663 18.3393Z" fill="#EBEBEB"/>
<path d="M62.8661 18.3393H63.2565L64.1654 7.95258H63.775L62.8661 18.3393Z" fill="#E0E0E0"/>
<path d="M62.1242 17.2803H55.6129L56.3341 9.01154H62.8484L62.1242 17.2803Z" fill="#E0E0E0"/>
<path d="M61.6503 16.6002H56.2089L56.8108 9.69165H62.2523L61.6503 16.6002Z" fill="#FAFAFA"/>
<path d="M59.147 14.5718C59.3993 14.5819 59.651 14.5409 59.887 14.4512C60.123 14.3615 60.3385 14.225 60.5205 14.05C60.7025 13.8749 60.8473 13.6648 60.9463 13.4323C61.0452 13.1998 61.0962 12.9497 61.0962 12.697C61.0962 12.4443 61.0452 12.1942 60.9463 11.9618C60.8473 11.7293 60.7025 11.5192 60.5205 11.3441C60.3385 11.169 60.123 11.0325 59.887 10.9429C59.651 10.8532 59.3993 10.8122 59.147 10.8222C58.11 10.8222 58.11 14.5718 59.147 14.5718Z" fill="#E6E6E6"/>
<path d="M55.7707 18.3394L56.331 11.9111H48.1866L47.6234 18.3394H55.7707Z" fill="#F0F0F0"/>
<path d="M55.7707 18.3394L56.3309 11.9111H56.772L56.2088 18.3394H55.7707Z" fill="#E0E0E0"/>
<path d="M54.996 17.6831L55.446 12.5673H48.9585L48.5115 17.6831H54.996Z" fill="#FAFAFA"/>
<path d="M54.501 17.2625L54.8735 12.9879H49.4559L49.0834 17.2625H54.501Z" fill="#EBEBEB"/>
<path d="M51.986 16.0812C52.3069 16.0812 52.6146 15.9536 52.8415 15.7265C53.0684 15.4994 53.1959 15.1913 53.1959 14.8701C53.1959 14.5489 53.0684 14.2409 52.8415 14.0138C52.6146 13.7867 52.3069 13.6591 51.986 13.6591C51.3155 13.6591 51.3155 16.0812 51.986 16.0812Z" fill="#F5F5F5"/>
<path d="M23.387 85.119C23.3749 85.1087 23.3652 85.0959 23.3585 85.0815C23.3518 85.0671 23.3483 85.0514 23.3482 85.0355C23.3214 84.4389 22.9698 78.7027 19.4534 74.7681C16.4734 71.4362 19.5308 73.8136 20.854 74.8845C20.8763 74.9027 20.9043 74.9125 20.9331 74.912C20.9619 74.9116 20.9896 74.901 21.0114 74.8821C21.0331 74.8632 21.0475 74.8372 21.0519 74.8087C21.0564 74.7802 21.0507 74.751 21.0357 74.7264C20.103 73.1484 17.7577 68.9752 18.5743 68.1638C19.3401 67.3972 20.9255 71.2095 21.6317 73.0589C21.644 73.0849 21.6648 73.106 21.6907 73.1185C21.7166 73.131 21.746 73.1342 21.7739 73.1275C21.8019 73.1209 21.8268 73.1048 21.8443 73.082C21.8618 73.0592 21.8709 73.031 21.8701 73.0022C21.6645 71.0454 21.3695 66.9528 22.4661 67.0959C23.5628 67.2391 23.2529 72.6443 23.0383 75.2902C23.0364 75.32 23.0455 75.3494 23.0638 75.373C23.0821 75.3966 23.1084 75.4127 23.1377 75.4182C23.167 75.4237 23.1974 75.4182 23.223 75.4029C23.2486 75.3876 23.2677 75.3634 23.2767 75.3349C23.7714 73.6943 24.7071 71.3079 25.8067 71.9373C27.4338 72.8799 23.4227 76.194 23.6641 79.7885C23.9114 83.3144 23.977 85.6262 23.387 85.119Z" fill="#F5F5F5"/>
<path d="M25.0618 86.1363C25.0618 86.1363 25.0827 86.0796 25.1155 86.0557C29.1653 83.2487 28.167 77.074 26.9362 73.2439C26.6232 72.3917 26.4229 71.5022 26.3402 70.598C27.2015 71.6301 27.717 72.9843 28.2921 74.2163C28.3696 74.3774 28.5574 74.3207 28.5305 74.1447C28.2325 72.17 28.1014 65.9624 29.8924 66.0728C30.703 66.1235 29.803 71.5227 29.7672 72.6353C29.7672 72.8113 29.9818 72.8799 30.0265 72.7159C30.5569 70.7978 34.1985 66.8424 34.8779 67.6448C35.1759 67.9819 33.4505 69.8403 32.8694 70.7143C31.7758 72.352 31.0278 74.1805 30.3305 76.0121C30.2709 76.1731 30.4675 76.3432 30.554 76.206C31.2036 75.1828 33.6204 72.7218 34.428 73.9419C35.024 74.8368 33.4356 76.1045 32.6578 76.8652C31.29 78.1866 29.9609 79.6602 29.2904 81.45C28.8345 82.679 25.5505 86.7895 25.0618 86.1363Z" fill="#F5F5F5"/>
<path d="M25.5565 85.5457C25.5704 85.5322 25.5814 85.5159 25.5886 85.4979C25.5957 85.4799 25.599 85.4606 25.5982 85.4413C25.5982 84.7283 25.6429 77.7303 29.651 72.7189C33.0423 68.4771 29.4961 71.5645 27.9584 72.9516C27.9325 72.975 27.8992 72.9887 27.8643 72.9901C27.8294 72.9915 27.7952 72.9806 27.7675 72.9593C27.7398 72.938 27.7205 72.9076 27.7129 72.8735C27.7053 72.8393 27.7099 72.8036 27.726 72.7726C28.757 70.7949 31.3228 65.5717 30.2858 64.641C29.3024 63.7461 27.6306 68.492 26.8916 70.7829C26.8844 70.8225 26.8619 70.8576 26.829 70.8805C26.796 70.9035 26.7553 70.9124 26.7157 70.9052C26.6762 70.8981 26.6411 70.8756 26.6182 70.8426C26.5953 70.8096 26.5864 70.7688 26.5936 70.7292C26.7098 68.3429 26.8022 63.3524 25.4761 63.5999C24.15 63.8475 24.8801 70.3892 25.3211 73.5869C25.3306 73.6265 25.324 73.6682 25.3027 73.7029C25.2815 73.7376 25.2474 73.7624 25.2079 73.7719C25.1683 73.7814 25.1267 73.7748 25.092 73.7535C25.0574 73.7322 25.0326 73.6981 25.0231 73.6585C24.3168 71.7136 23.0235 68.853 21.7302 69.7001C19.817 70.953 24.9188 74.7115 24.8503 79.0935C24.8026 83.389 24.8741 86.1989 25.5565 85.5457Z" fill="#E6E6E6"/>
<path d="M28.2654 96.2694C29.4812 91.7353 30.2828 85.3458 30.2828 83.7737H21.2177C21.2177 85.3458 22.0163 91.7353 23.2321 96.2694C23.3417 96.675 23.5818 97.0331 23.9153 97.2882C24.2488 97.5433 24.657 97.6811 25.0768 97.6803H26.4237C26.8429 97.6805 27.2505 97.5423 27.5834 97.2873C27.9163 97.0322 28.156 96.6745 28.2654 96.2694Z" fill="#E6E6E6"/>
<path d="M127.443 97.388H119.283C118.806 97.388 118.347 97.2049 118.001 96.8764C117.654 96.5479 117.447 96.099 117.421 95.6221L116.423 76.892H130.3L129.305 95.6221C129.279 96.099 129.072 96.5479 128.725 96.8764C128.379 97.2049 127.92 97.388 127.443 97.388Z" fill="#E6E6E6"/>
<path d="M125.243 78.0405H121.483V81.805H125.243V78.0405Z" fill="#FAFAFA"/>
<path d="M125.243 82.7327H121.483V86.4972H125.243V82.7327Z" fill="#FAFAFA"/>
<path d="M125.243 87.4249H121.483V91.1894H125.243V87.4249Z" fill="#FAFAFA"/>
<path d="M125.243 92.1141H121.483V95.8787H125.243V92.1141Z" fill="#FAFAFA"/>
<path d="M130.724 75.5289H116C115.794 75.5289 115.627 75.6958 115.627 75.9017V76.5222C115.627 76.7281 115.794 76.8951 116 76.8951H130.724C130.929 76.8951 131.096 76.7281 131.096 76.5222V75.9017C131.096 75.6958 130.929 75.5289 130.724 75.5289Z" fill="#F5F5F5"/>
<path d="M128.396 92.1171H126.212V95.8786H128.122C128.176 95.7814 128.208 95.6734 128.214 95.5625L128.396 92.1171Z" fill="#FAFAFA"/>
<path d="M120.514 92.1171H118.327L118.512 95.5625C118.519 95.6734 118.55 95.7814 118.604 95.8786H120.514V92.1171Z" fill="#FAFAFA"/>
<path d="M120.514 87.4249H118.08L118.279 91.1864H120.514V87.4249Z" fill="#FAFAFA"/>
<path d="M120.514 82.7327H117.829L118.029 86.4972H120.514V82.7327Z" fill="#FAFAFA"/>
<path d="M120.514 78.0405H117.579L117.779 81.805H120.514V78.0405Z" fill="#FAFAFA"/>
<path d="M126.212 87.4249V91.1864H128.447L128.647 87.4249H126.212Z" fill="#FAFAFA"/>
<path d="M126.212 82.7327V86.4972H128.697L128.897 82.7327H126.212Z" fill="#FAFAFA"/>
<path d="M126.212 78.0405V81.805H128.948L129.147 78.0405H126.212Z" fill="#FAFAFA"/>
<path d="M73.0636 110C104.974 110 130.843 108.488 130.843 106.623C130.843 104.758 104.974 103.247 73.0636 103.247C41.1531 103.247 15.2844 104.758 15.2844 106.623C15.2844 108.488 41.1531 110 73.0636 110Z" fill="#F5F5F5"/>
<path d="M118.16 55.6383C116.05 55.6383 113.559 51.7814 111.36 48.3748C109.917 46.1436 108.517 43.9749 107.027 42.4089H111.959V40.0225H105.909C106.991 38.7875 108.016 37.2036 109.068 35.5779C110.719 33.0185 112.775 29.8357 114.346 29.8357H118.971V27.4493H114.346C111.476 27.4493 109.333 30.7693 107.066 34.2833C105.415 36.8397 103.358 40.0225 101.785 40.0225H48.9973C47.4268 40.0225 45.3706 36.8397 43.7197 34.2833C41.449 30.7693 39.3063 27.4582 36.4396 27.4582H31.8116V29.8446H36.4396C38.01 29.8446 40.0662 33.0274 41.7172 35.5868C42.7661 37.2125 43.8032 38.7965 44.873 40.0314H23.4468V42.4178H47.4835C45.9935 43.9839 44.5899 46.1525 43.1505 48.3838C40.9513 51.7873 38.46 55.6473 36.3502 55.6473H27.583V58.0337H36.3561C39.7623 58.0337 42.3847 53.9768 45.1561 49.6814C47.3553 46.2748 49.8466 42.4178 51.9564 42.4178H102.557C104.667 42.4178 107.158 46.2748 109.357 49.6814C112.132 53.9768 114.751 58.0337 118.16 58.0337H126.927V55.6473L118.16 55.6383Z" fill="#263238"/>
<g opacity="0.4">
<path d="M104.813 41.8391L104.688 42.0241C106.443 43.2351 108.106 45.6812 109.938 48.515L110.126 48.3927C108.278 45.538 106.604 43.0741 104.813 41.8391Z" fill="white"/>
<path d="M112.447 51.9186L112.263 52.0468C113.043 53.229 113.941 54.3285 114.945 55.3281L115.097 55.1641C114.104 54.1762 113.217 53.0886 112.447 51.9186Z" fill="white"/>
<path d="M110.508 49.398C110.895 49.9946 111.279 50.5912 111.667 51.1639L111.851 51.0386C111.467 50.4629 111.083 49.8693 110.695 49.2757L110.508 49.398Z" fill="white"/>
<path d="M115.922 55.7964L115.791 55.9754C116.469 56.5226 117.305 56.8365 118.175 56.8703H124.087V56.6465H118.16C117.343 56.6092 116.558 56.3113 115.922 55.7964Z" fill="white"/>
<path d="M126.927 56.6526H125.139V56.8763H126.927V56.6526Z" fill="white"/>
<path d="M25.2348 41.0367H23.4468V41.2605H25.2348V41.0367Z" fill="white"/>
<path d="M33.9005 41.0367H26.9661V41.2605H33.9005V41.0367Z" fill="white"/>
<path d="M35.6348 41.0397V41.2634H49.5008V41.0397H48.9971C48.418 41.0218 47.8575 40.8306 47.3879 40.4908L47.2658 40.6788C47.4766 40.8195 47.7001 40.9404 47.9333 41.0397H35.6348Z" fill="white"/>
<path d="M92.8359 41.0367H85.9015V41.2605H92.8359V41.0367Z" fill="white"/>
<path d="M108.436 41.2634V41.0397H102.852C103.085 40.9397 103.308 40.8189 103.519 40.6788L103.394 40.4908C102.925 40.8311 102.364 41.0224 101.785 41.0397H94.5703V41.2634H102.557C102.98 41.2674 103.398 41.3556 103.787 41.5229L103.874 41.3171L103.725 41.2634H108.436Z" fill="white"/>
<path d="M84.1672 41.0367H80.7015V41.2605H84.1672V41.0367Z" fill="white"/>
<path d="M78.967 41.0367H65.1011V41.2605H78.967V41.0367Z" fill="white"/>
<path d="M111.959 41.0367H110.171V41.2605H111.959V41.0367Z" fill="white"/>
<path d="M107.662 35.6972L107.474 35.5749C106.544 37.0037 105.462 38.6145 104.375 39.6854L104.53 39.8435C105.635 38.7577 106.726 37.135 107.662 35.6972Z" fill="white"/>
<path d="M114.346 28.6902H115.889V28.4665H114.346C112.069 28.4665 110.001 31.6642 108.177 34.4861L108.365 34.6084C110.159 31.8343 112.191 28.6902 114.346 28.6902Z" fill="white"/>
<path d="M118.971 28.4665H117.183V28.6902H118.971V28.4665Z" fill="white"/>
<path d="M46.4105 39.6884C45.3199 38.6175 44.2381 37.0037 43.3113 35.5779L43.1236 35.7002C44.0593 37.138 45.15 38.7607 46.2526 39.8465L46.4105 39.6884Z" fill="white"/>
<path d="M42.4203 34.6174L42.608 34.4951C40.7813 31.6732 38.7132 28.4755 36.4394 28.4755H34.8928V28.6992H36.4394C38.591 28.6902 40.6263 31.8343 42.4203 34.6174Z" fill="white"/>
<path d="M33.5994 28.4665H31.8114V28.6902H33.5994V28.4665Z" fill="white"/>
<path d="M56.4354 41.0367H55.908V41.2605H56.4354H57.696H63.3699V41.0367H57.696H56.4354Z" fill="white"/>
<path d="M44.3843 48.3927L44.572 48.515C46.4047 45.6812 48.0646 43.2351 49.8228 42.0241L49.6946 41.8391C47.9037 43.0741 46.2289 45.538 44.3843 48.3927Z" fill="white"/>
<path d="M51.9503 41.0397H51.2351V41.1262C51.0314 41.1729 50.832 41.2368 50.6391 41.3172L50.7255 41.523C51.1147 41.3562 51.5329 41.268 51.9563 41.2635H54.8588V41.0397H51.9563H51.9503Z" fill="white"/>
<path d="M36.3561 56.6556H30.4378V56.8793H36.3561C37.2264 56.8462 38.0626 56.5322 38.7401 55.9844L38.609 55.8054C37.9685 56.3233 37.1787 56.6214 36.3561 56.6556Z" fill="white"/>
<path d="M42.6558 51.0386L42.8435 51.1639C43.2279 50.5852 43.6153 49.9916 43.9997 49.398L43.812 49.2757C43.4276 49.8693 43.0432 50.4629 42.6558 51.0386Z" fill="white"/>
<path d="M39.3987 55.1402L39.5536 55.3043C40.5576 54.3053 41.4563 53.2058 42.2356 52.023L42.0539 51.8947C41.2827 53.0651 40.3929 54.1527 39.3987 55.1402Z" fill="white"/>
<path d="M29.3709 56.6526H27.5829V56.8763H29.3709V56.6526Z" fill="white"/>
</g>
<path d="M36.4512 51.0685H34.2698C34.0168 51.0687 33.7677 51.1315 33.5447 51.2511C33.3217 51.3708 33.1316 51.5437 32.9914 51.7546L32.6725 52.2378C32.5445 52.4314 32.3705 52.5903 32.1661 52.7001C31.9617 52.8099 31.7333 52.8673 31.5014 52.8672H25.8602C25.7398 52.8672 25.6206 52.891 25.5094 52.9372C25.3983 52.9834 25.2973 53.0511 25.2123 53.1365C25.1273 53.2218 25.06 53.3232 25.0142 53.4346C24.9684 53.5461 24.945 53.6655 24.9454 53.786V62.5947H37.6551V52.8672L37.5418 52.023C37.5065 51.7587 37.3764 51.5161 37.1757 51.3405C36.9751 51.165 36.7176 51.0683 36.4512 51.0685Z" fill="#3452FF"/>
<path opacity="0.2" d="M36.4512 51.0685H34.2698C34.0168 51.0687 33.7677 51.1315 33.5447 51.2511C33.3217 51.3708 33.1316 51.5437 32.9914 51.7546L32.6725 52.2378C32.5445 52.4314 32.3705 52.5903 32.1661 52.7001C31.9617 52.8099 31.7333 52.8673 31.5014 52.8672H25.8602C25.7398 52.8672 25.6206 52.891 25.5094 52.9372C25.3983 52.9834 25.2973 53.0511 25.2123 53.1365C25.1273 53.2218 25.06 53.3232 25.0142 53.4346C24.9684 53.5461 24.945 53.6655 24.9454 53.786V62.5947H37.6551V52.8672L37.5418 52.023C37.5065 51.7587 37.3764 51.5161 37.1757 51.3405C36.9751 51.165 36.7176 51.0683 36.4512 51.0685Z" fill="white"/>
<path d="M36.7017 53.9799H25.8992V61.3746H36.7017V53.9799Z" fill="#263238"/>
<path opacity="0.9" d="M36.7017 53.9799H25.8992V61.3746H36.7017V53.9799Z" fill="white"/>
<path d="M37.6554 62.5946H24.9457L23.0802 55.7964C23.0478 55.6763 23.0434 55.5502 23.0673 55.4281C23.0913 55.306 23.1431 55.191 23.2185 55.0921C23.294 54.9932 23.3912 54.913 23.5026 54.8577C23.614 54.8024 23.7366 54.7735 23.861 54.7733H34.291C34.6457 54.7741 34.9904 54.8913 35.2724 55.1067C35.5544 55.3222 35.7581 55.6241 35.8525 55.9664L37.6554 62.5946Z" fill="#3452FF"/>
<path opacity="0.6" d="M37.6554 62.5946H24.9457L23.0802 55.7964C23.0478 55.6763 23.0434 55.5502 23.0673 55.4281C23.0913 55.306 23.1431 55.191 23.2185 55.0921C23.294 54.9932 23.3912 54.913 23.5026 54.8577C23.614 54.8024 23.7366 54.7735 23.861 54.7733H34.291C34.6457 54.7741 34.9904 54.8913 35.2724 55.1067C35.5544 55.3222 35.7581 55.6241 35.8525 55.9664L37.6554 62.5946Z" fill="white"/>
<path d="M22.4098 18.6794H24.7669C25.04 18.6793 25.3089 18.7468 25.5496 18.8759C25.7903 19.005 25.9954 19.1916 26.1467 19.4192L26.4894 19.9412C26.6284 20.15 26.8167 20.3212 27.0376 20.4399C27.2585 20.5585 27.5052 20.6208 27.7559 20.6213H33.8381C34.0997 20.6213 34.3506 20.7253 34.5355 20.9105C34.7205 21.0957 34.8244 21.3468 34.8244 21.6087V30.307C34.8244 30.5214 34.7394 30.727 34.5879 30.8786C34.4365 31.0302 34.231 31.1154 34.0169 31.1154H21.921C21.7069 31.1154 21.5014 31.0302 21.35 30.8786C21.1985 30.727 21.1135 30.5214 21.1135 30.307V20.6213L21.2356 19.7085C21.2751 19.4243 21.4154 19.1639 21.6311 18.9749C21.8467 18.7859 22.1231 18.681 22.4098 18.6794Z" fill="#3452FF"/>
<path opacity="0.6" d="M22.4098 18.6794H24.7669C25.04 18.6793 25.3089 18.7468 25.5496 18.8759C25.7903 19.005 25.9954 19.1916 26.1467 19.4192L26.4894 19.9412C26.6284 20.15 26.8167 20.3212 27.0376 20.4399C27.2585 20.5585 27.5052 20.6208 27.7559 20.6213H33.8381C34.0997 20.6213 34.3506 20.7253 34.5355 20.9105C34.7205 21.0957 34.8244 21.3468 34.8244 21.6087V30.307C34.8244 30.5214 34.7394 30.727 34.5879 30.8786C34.4365 31.0302 34.231 31.1154 34.0169 31.1154H21.921C21.7069 31.1154 21.5014 31.0302 21.35 30.8786C21.1985 30.727 21.1135 30.5214 21.1135 30.307V20.6213L21.2356 19.7085C21.2751 19.4243 21.4154 19.1639 21.6311 18.9749C21.8467 18.7859 22.1231 18.681 22.4098 18.6794Z" fill="white"/>
<path d="M32.36 20.6213H31.1412V29.072H32.36V20.6213Z" fill="#263238"/>
<path opacity="0.5" d="M32.36 20.6213H31.1412V29.072H32.36V20.6213Z" fill="white"/>
<path d="M31.7878 21.021H30.8521V21.716H31.7878V21.021Z" fill="#263238"/>
<path d="M31.7878 22.5363H30.8521V23.2313H31.7878V22.5363Z" fill="#263238"/>
<path d="M31.7878 24.0518H30.8521V24.7468H31.7878V24.0518Z" fill="#263238"/>
<path d="M31.7878 25.5701H30.8521V26.2651H31.7878V25.5701Z" fill="#263238"/>
<path d="M31.7878 27.0854H30.8521V27.7805H31.7878V27.0854Z" fill="#263238"/>
<path opacity="0.7" d="M31.7878 21.021H30.8521V21.716H31.7878V21.021Z" fill="white"/>
<path opacity="0.7" d="M31.7878 22.5363H30.8521V23.2313H31.7878V22.5363Z" fill="white"/>
<path opacity="0.7" d="M31.7878 24.0518H30.8521V24.7468H31.7878V24.0518Z" fill="white"/>
<path opacity="0.7" d="M31.7878 25.5701H30.8521V26.2651H31.7878V25.5701Z" fill="white"/>
<path opacity="0.7" d="M31.7878 27.0854H30.8521V27.7805H31.7878V27.0854Z" fill="white"/>
<path d="M32.6936 21.7191H31.7579V22.4141H32.6936V21.7191Z" fill="#263238"/>
<path d="M32.6936 23.2344H31.7579V23.9294H32.6936V23.2344Z" fill="#263238"/>
<path d="M32.6936 24.7497H31.7579V25.4447H32.6936V24.7497Z" fill="#263238"/>
<path d="M32.6936 26.2651H31.7579V26.9601H32.6936V26.2651Z" fill="#263238"/>
<path d="M32.6936 27.7805H31.7579V28.4755H32.6936V27.7805Z" fill="#263238"/>
<g opacity="0.8">
<path d="M32.6936 21.7191H31.7579V22.4141H32.6936V21.7191Z" fill="white"/>
<path d="M32.6935 23.2344H31.7578V23.9294H32.6935V23.2344Z" fill="white"/>
<path d="M32.6935 24.7498H31.7578V25.4448H32.6935V24.7498Z" fill="white"/>
<path d="M32.6935 26.2651H31.7578V26.9602H32.6935V26.2651Z" fill="white"/>
<path d="M32.6935 27.7805H31.7578V28.4755H32.6935V27.7805Z" fill="white"/>
</g>
<path d="M30.4467 28.4784V31.2496H33.1287V28.4784H30.4467ZM32.6966 30.7455H30.9086V28.9795H32.6966V30.7455Z" fill="#263238"/>
<path opacity="0.7" d="M30.4467 28.4784V31.2496H33.1287V28.4784H30.4467ZM32.6966 30.7455H30.9086V28.9795H32.6966V30.7455Z" fill="white"/>
<path d="M31.2007 34.6621H18.7771V37.4333L21.5425 40.2015H33.9632V37.4273L31.2007 34.6621Z" fill="#3452FF"/>
<path opacity="0.3" d="M31.2007 34.6621H18.7771V37.4333L21.5425 40.2015H33.9632V37.4273L31.2007 34.6621Z" fill="white"/>
<path d="M33.966 40.1985H21.5424V42.9697H33.966V40.1985Z" fill="#3452FF"/>
<path opacity="0.3" d="M33.966 40.1985H21.5424V42.9697H33.966V40.1985Z" fill="white"/>
<path d="M33.966 42.9667H21.5424V45.7379H33.966V42.9667Z" fill="#3452FF"/>
<path opacity="0.6" d="M33.966 42.9667H21.5424V45.7379H33.966V42.9667Z" fill="white"/>
<path d="M33.966 37.4273H21.5424V40.1985H33.966V37.4273Z" fill="#3452FF"/>
<path d="M26.2271 45.7409H29.0164V37.4273L26.2509 34.6621H23.4617L26.2271 37.4273V45.7409Z" fill="#3452FF"/>
<path opacity="0.2" d="M26.2271 45.7409H29.0164V37.4273L26.2509 34.6621H23.4617L26.2271 37.4273V45.7409Z" fill="black"/>
<path d="M25.485 39.411V43.7602H29.6927V39.411H25.485ZM29.0163 42.9697H26.224V40.1985H29.0133L29.0163 42.9697Z" fill="#263238"/>
<path opacity="0.5" d="M25.485 39.411V43.7602H29.6927V39.411H25.485ZM29.0163 42.9697H26.224V40.1985H29.0133L29.0163 42.9697Z" fill="white"/>
<path d="M18.7771 34.6621V37.4333L21.5425 40.2015V37.4273L18.7771 34.6621Z" fill="#263238"/>
<path opacity="0.5" d="M18.7771 34.6621V37.4333L21.5425 40.2015V37.4273L18.7771 34.6621Z" fill="white"/>
<path d="M18.7771 37.4303V40.2015L21.5425 42.9697V40.1985L18.7771 37.4303Z" fill="#263238"/>
<path opacity="0.6" d="M18.7771 37.4303V40.2015L21.5425 42.9697V40.1985L18.7771 37.4303Z" fill="white"/>
<path d="M18.7771 40.2015V42.9727L21.5425 45.7409V42.9667L18.7771 40.2015Z" fill="#263238"/>
<path opacity="0.8" d="M18.7771 40.2015V42.9727L21.5425 45.7409V42.9667L18.7771 40.2015Z" fill="white"/>
<path d="M129.314 47.4113H115.767V65.6611H129.314V47.4113Z" fill="#3452FF"/>
<path opacity="0.7" d="M129.314 47.4113H115.767V65.6611H129.314V47.4113Z" fill="white"/>
<path opacity="0.7" d="M128.429 48.2973H116.652V53.0492H128.429V48.2973Z" fill="white"/>
<path opacity="0.7" d="M128.429 54.1588H116.652V58.9107H128.429V54.1588Z" fill="white"/>
<path d="M128.429 50.8597L127.33 49.5174L125.974 51.1729L124.618 49.222L123.178 50.6658L121.766 49.8693L120.479 52.0052L119.194 49.8693L117.737 50.6927L116.652 50.0782V50.5882L117.737 51.2027L119.039 50.4659L120.479 52.8643L121.921 50.4659L123.253 51.2147L124.555 49.9111L125.944 51.9067L127.33 50.2154L128.429 51.5577V50.8597Z" fill="#3452FF"/>
<path opacity="0.5" d="M128.429 50.8597L127.33 49.5174L125.974 51.1729L124.618 49.222L123.178 50.6658L121.766 49.8693L120.479 52.0052L119.194 49.8693L117.737 50.6927L116.652 50.0782V50.5882L117.737 51.2027L119.039 50.4659L120.479 52.8643L121.921 50.4659L123.253 51.2147L124.555 49.9111L125.944 51.9067L127.33 50.2154L128.429 51.5577V50.8597Z" fill="white"/>
<path d="M128.429 55.6026L127.321 56.229L125.863 55.4027L124.579 57.5385L123.295 55.4027L121.882 56.1992L120.443 54.7584L119.087 56.7093L117.728 55.0537L116.652 56.3662V57.0643L117.728 55.7517L119.114 57.4401L120.502 55.4445L121.805 56.751L123.137 55.9993L124.579 58.3976L126.021 56.0023L127.321 56.7361L128.429 56.1097V55.6026Z" fill="#3452FF"/>
<path opacity="0.5" d="M128.429 55.6026L127.321 56.229L125.863 55.4027L124.579 57.5385L123.295 55.4027L121.882 56.1992L120.443 54.7584L119.087 56.7093L117.728 55.0537L116.652 56.3662V57.0643L117.728 55.7517L119.114 57.4401L120.502 55.4445L121.805 56.751L123.137 55.9993L124.579 58.3976L126.021 56.0023L127.321 56.7361L128.429 56.1097V55.6026Z" fill="white"/>
<path d="M121.516 60.2441H128.262C128.321 60.2441 128.377 60.2208 128.418 60.1794C128.46 60.138 128.483 60.0819 128.483 60.0234C128.483 59.9648 128.46 59.9087 128.418 59.8673C128.377 59.8259 128.321 59.8026 128.262 59.8026H121.516C121.457 59.8026 121.401 59.8259 121.36 59.8673C121.318 59.9087 121.295 59.9648 121.295 60.0234C121.295 60.0819 121.318 60.138 121.36 60.1794C121.401 60.2208 121.457 60.2441 121.516 60.2441Z" fill="#263238"/>
<path d="M121.515 61.4641H127.377C127.432 61.4578 127.482 61.4317 127.518 61.3907C127.555 61.3497 127.575 61.2968 127.575 61.2419C127.575 61.187 127.555 61.1341 127.518 61.0931C127.482 61.0521 127.432 61.026 127.377 61.0197H121.515C121.461 61.026 121.411 61.0521 121.374 61.0931C121.338 61.1341 121.318 61.187 121.318 61.2419C121.318 61.2968 121.338 61.3497 121.374 61.3907C121.411 61.4317 121.461 61.4578 121.515 61.4641Z" fill="#263238"/>
<path d="M121.515 62.6573H127.377C127.432 62.651 127.482 62.6248 127.518 62.5839C127.555 62.5429 127.575 62.4899 127.575 62.4351C127.575 62.3802 127.555 62.3272 127.518 62.2863C127.482 62.2453 127.432 62.2192 127.377 62.2128H121.515C121.461 62.2192 121.411 62.2453 121.374 62.2863C121.338 62.3272 121.318 62.3802 121.318 62.4351C121.318 62.4899 121.338 62.5429 121.374 62.5839C121.411 62.6248 121.461 62.651 121.515 62.6573Z" fill="#263238"/>
<path d="M121.516 63.8505H127.672C127.731 63.8505 127.787 63.8272 127.828 63.7858C127.87 63.7444 127.893 63.6883 127.893 63.6297C127.893 63.5712 127.87 63.5151 127.828 63.4737C127.787 63.4323 127.731 63.409 127.672 63.409H121.516C121.457 63.409 121.401 63.4323 121.36 63.4737C121.318 63.5151 121.295 63.5712 121.295 63.6297C121.295 63.6883 121.318 63.7444 121.36 63.7858C121.401 63.8272 121.457 63.8505 121.516 63.8505Z" fill="#263238"/>
<g opacity="0.4">
<path d="M121.516 60.2441H128.262C128.321 60.2441 128.377 60.2208 128.418 60.1794C128.46 60.138 128.483 60.0819 128.483 60.0234C128.483 59.9648 128.46 59.9087 128.418 59.8673C128.377 59.8259 128.321 59.8026 128.262 59.8026H121.516C121.457 59.8026 121.401 59.8259 121.36 59.8673C121.318 59.9087 121.295 59.9648 121.295 60.0234C121.295 60.0819 121.318 60.138 121.36 60.1794C121.401 60.2208 121.457 60.2441 121.516 60.2441Z" fill="white"/>
<path d="M121.515 61.4641H127.377C127.432 61.4578 127.482 61.4317 127.518 61.3907C127.555 61.3497 127.575 61.2968 127.575 61.2419C127.575 61.187 127.555 61.1341 127.518 61.0931C127.482 61.0521 127.432 61.026 127.377 61.0197H121.515C121.461 61.026 121.411 61.0521 121.374 61.0931C121.338 61.1341 121.318 61.187 121.318 61.2419C121.318 61.2968 121.338 61.3497 121.374 61.3907C121.411 61.4317 121.461 61.4578 121.515 61.4641Z" fill="white"/>
<path d="M121.515 62.6573H127.377C127.432 62.651 127.482 62.6248 127.518 62.5839C127.555 62.5429 127.575 62.4899 127.575 62.4351C127.575 62.3802 127.555 62.3272 127.518 62.2863C127.482 62.2453 127.432 62.2192 127.377 62.2128H121.515C121.461 62.2192 121.411 62.2453 121.374 62.2863C121.338 62.3272 121.318 62.3802 121.318 62.4351C121.318 62.4899 121.338 62.5429 121.374 62.5839C121.411 62.6248 121.461 62.651 121.515 62.6573Z" fill="white"/>
<path d="M121.516 63.8505H127.672C127.731 63.8505 127.787 63.8272 127.828 63.7858C127.87 63.7444 127.893 63.6883 127.893 63.6297C127.893 63.5712 127.87 63.5151 127.828 63.4737C127.787 63.4323 127.731 63.409 127.672 63.409H121.516C121.457 63.409 121.401 63.4323 121.36 63.4737C121.318 63.5151 121.295 63.5712 121.295 63.6297C121.295 63.6883 121.318 63.7444 121.36 63.7858C121.401 63.8272 121.457 63.8505 121.516 63.8505Z" fill="white"/>
</g>
<path d="M128.62 19.3386H116.303V35.9299H128.62V19.3386Z" fill="#3452FF"/>
<path opacity="0.6" d="M128.62 19.3386H116.303V35.9299H128.62V19.3386Z" fill="white"/>
<path opacity="0.7" d="M127.815 20.144H117.108V24.4634H127.815V20.144Z" fill="white"/>
<path d="M121.563 25.761H127.699C127.748 25.755 127.793 25.7312 127.826 25.6941C127.859 25.657 127.877 25.6092 127.877 25.5596C127.877 25.5101 127.859 25.4622 127.826 25.4252C127.793 25.3881 127.748 25.3643 127.699 25.3583H121.563C121.514 25.3643 121.469 25.3881 121.436 25.4252C121.403 25.4622 121.385 25.5101 121.385 25.5596C121.385 25.6092 121.403 25.657 121.436 25.6941C121.469 25.7312 121.514 25.755 121.563 25.761Z" fill="#263238"/>
<path d="M121.563 26.8617H126.894C126.944 26.8557 126.989 26.8319 127.022 26.7948C127.054 26.7577 127.073 26.7099 127.073 26.6603C127.073 26.6108 127.054 26.563 127.022 26.5259C126.989 26.4888 126.944 26.465 126.894 26.459H121.563C121.514 26.465 121.469 26.4888 121.436 26.5259C121.403 26.563 121.385 26.6108 121.385 26.6603C121.385 26.7099 121.403 26.7577 121.436 26.7948C121.469 26.8319 121.514 26.8557 121.563 26.8617Z" fill="#263238"/>
<path d="M121.563 27.9535H126.894C126.944 27.9475 126.989 27.9237 127.022 27.8866C127.054 27.8495 127.073 27.8017 127.073 27.7521C127.073 27.7026 127.054 27.6548 127.022 27.6177C126.989 27.5806 126.944 27.5568 126.894 27.5508H121.563C121.514 27.5568 121.469 27.5806 121.436 27.6177C121.403 27.6548 121.385 27.7026 121.385 27.7521C121.385 27.8017 121.403 27.8495 121.436 27.8866C121.469 27.9237 121.514 27.9475 121.563 27.9535Z" fill="#263238"/>
<path d="M121.563 29.0511H127.163C127.212 29.0451 127.257 29.0214 127.29 28.9843C127.323 28.9472 127.341 28.8993 127.341 28.8498C127.341 28.8002 127.323 28.7524 127.29 28.7153C127.257 28.6782 127.212 28.6544 127.163 28.6484H121.563C121.514 28.6544 121.469 28.6782 121.436 28.7153C121.403 28.7524 121.385 28.8002 121.385 28.8498C121.385 28.8993 121.403 28.9472 121.436 28.9843C121.469 29.0214 121.514 29.0451 121.563 29.0511Z" fill="#263238"/>
<path d="M121.563 30.1429H126.09C126.139 30.1369 126.184 30.1131 126.217 30.0761C126.25 30.039 126.268 29.9911 126.268 29.9416C126.268 29.892 126.25 29.8442 126.217 29.8071C126.184 29.77 126.139 29.7462 126.09 29.7402H121.563C121.514 29.7462 121.469 29.77 121.436 29.8071C121.403 29.8442 121.385 29.892 121.385 29.9416C121.385 29.9911 121.403 30.039 121.436 30.0761C121.469 30.1131 121.514 30.1369 121.563 30.1429Z" fill="#263238"/>
<path d="M121.563 31.2436H127.699C127.748 31.2376 127.793 31.2139 127.826 31.1768C127.859 31.1397 127.877 31.0918 127.877 31.0423C127.877 30.9927 127.859 30.9449 127.826 30.9078C127.793 30.8707 127.748 30.8469 127.699 30.8409H121.563C121.514 30.8469 121.469 30.8707 121.436 30.9078C121.403 30.9449 121.385 30.9927 121.385 31.0423C121.385 31.0918 121.403 31.1397 121.436 31.1768C121.469 31.2139 121.514 31.2376 121.563 31.2436Z" fill="#263238"/>
<path d="M121.563 32.3384H126.894C126.944 32.3324 126.989 32.3086 127.022 32.2716C127.054 32.2345 127.073 32.1866 127.073 32.1371C127.073 32.0875 127.054 32.0397 127.022 32.0026C126.989 31.9655 126.944 31.9417 126.894 31.9357H121.563C121.514 31.9417 121.469 31.9655 121.436 32.0026C121.403 32.0397 121.385 32.0875 121.385 32.1371C121.385 32.1866 121.403 32.2345 121.436 32.2716C121.469 32.3086 121.514 32.3324 121.563 32.3384Z" fill="#263238"/>
<path d="M121.563 33.4242H126.894C126.944 33.4182 126.989 33.3944 127.022 33.3573C127.054 33.3202 127.073 33.2724 127.073 33.2228C127.073 33.1733 127.054 33.1255 127.022 33.0884C126.989 33.0513 126.944 33.0275 126.894 33.0215H121.563C121.514 33.0275 121.469 33.0513 121.436 33.0884C121.403 33.1255 121.385 33.1733 121.385 33.2228C121.385 33.2724 121.403 33.3202 121.436 33.3573C121.469 33.3944 121.514 33.4182 121.563 33.4242Z" fill="#263238"/>
<path d="M121.563 34.5309H127.163C127.212 34.5249 127.257 34.5011 127.29 34.464C127.323 34.4269 127.341 34.3791 127.341 34.3295C127.341 34.28 127.323 34.2321 127.29 34.1951C127.257 34.158 127.212 34.1342 127.163 34.1282H121.563C121.514 34.1342 121.469 34.158 121.436 34.1951C121.403 34.2321 121.385 34.28 121.385 34.3295C121.385 34.3791 121.403 34.4269 121.436 34.464C121.469 34.5011 121.514 34.5249 121.563 34.5309Z" fill="#263238"/>
<g opacity="0.4">
<path d="M121.563 25.761H127.699C127.748 25.755 127.793 25.7312 127.826 25.6941C127.859 25.657 127.877 25.6092 127.877 25.5596C127.877 25.5101 127.859 25.4622 127.826 25.4252C127.793 25.3881 127.748 25.3643 127.699 25.3583H121.563C121.514 25.3643 121.469 25.3881 121.436 25.4252C121.403 25.4622 121.385 25.5101 121.385 25.5596C121.385 25.6092 121.403 25.657 121.436 25.6941C121.469 25.7312 121.514 25.755 121.563 25.761Z" fill="white"/>
</g>
<g opacity="0.4">
<path d="M121.563 26.8617H126.894C126.944 26.8557 126.989 26.8319 127.022 26.7948C127.054 26.7577 127.073 26.7099 127.073 26.6603C127.073 26.6108 127.054 26.563 127.022 26.5259C126.989 26.4888 126.944 26.465 126.894 26.459H121.563C121.514 26.465 121.469 26.4888 121.436 26.5259C121.403 26.563 121.385 26.6108 121.385 26.6603C121.385 26.7099 121.403 26.7577 121.436 26.7948C121.469 26.8319 121.514 26.8557 121.563 26.8617Z" fill="white"/>
</g>
<g opacity="0.4">
<path d="M121.563 27.9535H126.894C126.944 27.9475 126.989 27.9237 127.022 27.8866C127.054 27.8495 127.073 27.8017 127.073 27.7521C127.073 27.7026 127.054 27.6548 127.022 27.6177C126.989 27.5806 126.944 27.5568 126.894 27.5508H121.563C121.514 27.5568 121.469 27.5806 121.436 27.6177C121.403 27.6548 121.385 27.7026 121.385 27.7521C121.385 27.8017 121.403 27.8495 121.436 27.8866C121.469 27.9237 121.514 27.9475 121.563 27.9535Z" fill="white"/>
</g>
<g opacity="0.4">
<path d="M121.563 29.0511H127.163C127.212 29.0451 127.257 29.0214 127.29 28.9843C127.323 28.9472 127.341 28.8993 127.341 28.8498C127.341 28.8002 127.323 28.7524 127.29 28.7153C127.257 28.6782 127.212 28.6544 127.163 28.6484H121.563C121.514 28.6544 121.469 28.6782 121.436 28.7153C121.403 28.7524 121.385 28.8002 121.385 28.8498C121.385 28.8993 121.403 28.9472 121.436 28.9843C121.469 29.0214 121.514 29.0451 121.563 29.0511Z" fill="white"/>
</g>
<g opacity="0.4">
<path d="M121.563 30.1429H126.09C126.139 30.1369 126.184 30.1131 126.217 30.0761C126.25 30.039 126.268 29.9911 126.268 29.9416C126.268 29.892 126.25 29.8442 126.217 29.8071C126.184 29.77 126.139 29.7462 126.09 29.7402H121.563C121.514 29.7462 121.469 29.77 121.436 29.8071C121.403 29.8442 121.385 29.892 121.385 29.9416C121.385 29.9911 121.403 30.039 121.436 30.0761C121.469 30.1131 121.514 30.1369 121.563 30.1429Z" fill="white"/>
</g>
<g opacity="0.4">
<path d="M121.563 31.2436H127.699C127.748 31.2376 127.793 31.2139 127.826 31.1768C127.859 31.1397 127.877 31.0918 127.877 31.0423C127.877 30.9927 127.859 30.9449 127.826 30.9078C127.793 30.8707 127.748 30.8469 127.699 30.8409H121.563C121.514 30.8469 121.469 30.8707 121.436 30.9078C121.403 30.9449 121.385 30.9927 121.385 31.0423C121.385 31.0918 121.403 31.1397 121.436 31.1768C121.469 31.2139 121.514 31.2376 121.563 31.2436Z" fill="white"/>
</g>
<g opacity="0.4">
<path d="M121.563 32.3384H126.894C126.944 32.3324 126.989 32.3086 127.022 32.2716C127.054 32.2345 127.073 32.1866 127.073 32.1371C127.073 32.0875 127.054 32.0397 127.022 32.0026C126.989 31.9655 126.944 31.9417 126.894 31.9357H121.563C121.514 31.9417 121.469 31.9655 121.436 32.0026C121.403 32.0397 121.385 32.0875 121.385 32.1371C121.385 32.1866 121.403 32.2345 121.436 32.2716C121.469 32.3086 121.514 32.3324 121.563 32.3384Z" fill="white"/>
</g>
<g opacity="0.4">
<path d="M121.563 33.4242H126.894C126.944 33.4182 126.989 33.3944 127.022 33.3573C127.054 33.3202 127.073 33.2724 127.073 33.2228C127.073 33.1733 127.054 33.1255 127.022 33.0884C126.989 33.0513 126.944 33.0275 126.894 33.0215H121.563C121.514 33.0275 121.469 33.0513 121.436 33.0884C121.403 33.1255 121.385 33.1733 121.385 33.2228C121.385 33.2724 121.403 33.3202 121.436 33.3573C121.469 33.3944 121.514 33.4182 121.563 33.4242Z" fill="white"/>
</g>
<g opacity="0.4">
<path d="M121.563 34.5309H127.163C127.212 34.5249 127.257 34.5011 127.29 34.464C127.323 34.4269 127.341 34.3791 127.341 34.3295C127.341 34.28 127.323 34.2321 127.29 34.1951C127.257 34.158 127.212 34.1342 127.163 34.1282H121.563C121.514 34.1342 121.469 34.158 121.436 34.1951C121.403 34.2321 121.385 34.28 121.385 34.3295C121.385 34.3791 121.403 34.4269 121.436 34.464C121.469 34.5011 121.514 34.5249 121.563 34.5309Z" fill="white"/>
</g>
<path d="M120.127 25.5581H117.108V28.5799H120.127V25.5581Z" fill="#3452FF"/>
<path opacity="0.3" d="M120.127 25.5581H117.108V28.5799H120.127V25.5581Z" fill="white"/>
<path d="M120.419 22.4349H119.602V24.0696H120.419V22.4349Z" fill="#3452FF"/>
<path d="M122.055 21.6176H121.238V24.0696H122.055V21.6176Z" fill="#3452FF"/>
<path d="M123.688 22.0263H122.871V24.0696H123.688V22.0263Z" fill="#3452FF"/>
<path d="M125.321 20.8002H124.505V24.0725H125.321V20.8002Z" fill="#3452FF"/>
<path d="M122.588 33.123H110.272V49.7143H122.588V33.123Z" fill="#3452FF"/>
<path opacity="0.8" d="M122.588 33.123H110.272V49.7143H122.588V33.123Z" fill="white"/>
<path d="M115.532 34.9156H121.668C121.717 34.9096 121.762 34.8859 121.795 34.8488C121.828 34.8117 121.846 34.7638 121.846 34.7143C121.846 34.6647 121.828 34.6169 121.795 34.5798C121.762 34.5427 121.717 34.5189 121.668 34.5129H115.532C115.483 34.5189 115.437 34.5427 115.405 34.5798C115.372 34.6169 115.354 34.6647 115.354 34.7143C115.354 34.7638 115.372 34.8117 115.405 34.8488C115.437 34.8859 115.483 34.9096 115.532 34.9156Z" fill="#263238"/>
<path d="M115.532 35.9985H120.863C120.912 35.9925 120.957 35.9687 120.99 35.9316C121.023 35.8945 121.041 35.8467 121.041 35.7971C121.041 35.7476 121.023 35.6997 120.99 35.6626C120.957 35.6256 120.912 35.6018 120.863 35.5958H115.532C115.483 35.6018 115.437 35.6256 115.405 35.6626C115.372 35.6997 115.354 35.7476 115.354 35.7971C115.354 35.8467 115.372 35.8945 115.405 35.9316C115.437 35.9687 115.483 35.9925 115.532 35.9985Z" fill="#263238"/>
<path d="M115.532 37.0933H120.863C120.912 37.0873 120.957 37.0635 120.99 37.0264C121.023 36.9893 121.041 36.9414 121.041 36.8919C121.041 36.8424 121.023 36.7945 120.99 36.7574C120.957 36.7203 120.912 36.6965 120.863 36.6906H115.532C115.483 36.6965 115.437 36.7203 115.405 36.7574C115.372 36.7945 115.354 36.8424 115.354 36.8919C115.354 36.9414 115.372 36.9893 115.405 37.0264C115.437 37.0635 115.483 37.0873 115.532 37.0933Z" fill="#263238"/>
<path d="M115.532 38.1969H121.131C121.18 38.1909 121.226 38.1671 121.258 38.13C121.291 38.0929 121.309 38.0451 121.309 37.9955C121.309 37.946 121.291 37.8982 121.258 37.8611C121.226 37.824 121.18 37.8002 121.131 37.7942H115.532C115.483 37.8002 115.437 37.824 115.405 37.8611C115.372 37.8982 115.354 37.946 115.354 37.9955C115.354 38.0451 115.372 38.0929 115.405 38.13C115.437 38.1671 115.483 38.1909 115.532 38.1969Z" fill="#263238"/>
<path d="M115.532 39.2858H120.058C120.108 39.2798 120.153 39.256 120.186 39.2189C120.218 39.1818 120.236 39.134 120.236 39.0844C120.236 39.0349 120.218 38.987 120.186 38.9499C120.153 38.9128 120.108 38.8891 120.058 38.8831H115.532C115.483 38.8891 115.437 38.9128 115.405 38.9499C115.372 38.987 115.354 39.0349 115.354 39.0844C115.354 39.134 115.372 39.1818 115.405 39.2189C115.437 39.256 115.483 39.2798 115.532 39.2858Z" fill="#263238"/>
<path d="M115.532 40.3835H121.668C121.717 40.3775 121.762 40.3537 121.795 40.3166C121.828 40.2795 121.846 40.2317 121.846 40.1821C121.846 40.1326 121.828 40.0847 121.795 40.0477C121.762 40.0106 121.717 39.9868 121.668 39.9808H115.532C115.483 39.9868 115.437 40.0106 115.405 40.0477C115.372 40.0847 115.354 40.1326 115.354 40.1821C115.354 40.2317 115.372 40.2795 115.405 40.3166C115.437 40.3537 115.483 40.3775 115.532 40.3835Z" fill="#263238"/>
<path d="M115.532 41.4782H120.863C120.912 41.4722 120.957 41.4484 120.99 41.4113C121.023 41.3742 121.041 41.3264 121.041 41.2769C121.041 41.2273 121.023 41.1795 120.99 41.1424C120.957 41.1053 120.912 41.0815 120.863 41.0755H115.532C115.483 41.0815 115.437 41.1053 115.405 41.1424C115.372 41.1795 115.354 41.2273 115.354 41.2769C115.354 41.3264 115.372 41.3742 115.405 41.4113C115.437 41.4484 115.483 41.4722 115.532 41.4782Z" fill="#263238"/>
<path d="M115.532 42.5759H120.863C120.912 42.5699 120.957 42.5461 120.99 42.509C121.023 42.4719 121.041 42.4241 121.041 42.3746C121.041 42.325 121.023 42.2772 120.99 42.2401C120.957 42.203 120.912 42.1792 120.863 42.1732H115.532C115.483 42.1792 115.437 42.203 115.405 42.2401C115.372 42.2772 115.354 42.325 115.354 42.3746C115.354 42.4241 115.372 42.4719 115.405 42.509C115.437 42.5461 115.483 42.5699 115.532 42.5759Z" fill="#263238"/>
<path d="M115.532 44.7595H120.058C120.108 44.7535 120.153 44.7297 120.186 44.6926C120.218 44.6555 120.236 44.6076 120.236 44.5581C120.236 44.5086 120.218 44.4607 120.186 44.4236C120.153 44.3865 120.108 44.3627 120.058 44.3568H115.532C115.483 44.3627 115.437 44.3865 115.405 44.4236C115.372 44.4607 115.354 44.5086 115.354 44.5581C115.354 44.6076 115.372 44.6555 115.405 44.6926C115.437 44.7297 115.483 44.7535 115.532 44.7595Z" fill="#263238"/>
<path d="M115.532 45.8661H121.668C121.717 45.8601 121.762 45.8364 121.795 45.7993C121.828 45.7622 121.846 45.7143 121.846 45.6648C121.846 45.6152 121.828 45.5674 121.795 45.5303C121.762 45.4932 121.717 45.4694 121.668 45.4634H115.532C115.483 45.4694 115.437 45.4932 115.405 45.5303C115.372 45.5674 115.354 45.6152 115.354 45.6648C115.354 45.7143 115.372 45.7622 115.405 45.7993C115.437 45.8364 115.483 45.8601 115.532 45.8661Z" fill="#263238"/>
<path d="M115.532 46.9609H120.863C120.912 46.9549 120.957 46.9311 120.99 46.894C121.023 46.857 121.041 46.8091 121.041 46.7596C121.041 46.71 121.023 46.6622 120.99 46.6251C120.957 46.588 120.912 46.5642 120.863 46.5582H115.532C115.483 46.5642 115.437 46.588 115.405 46.6251C115.372 46.6622 115.354 46.71 115.354 46.7596C115.354 46.8091 115.372 46.857 115.405 46.894C115.437 46.9311 115.483 46.9549 115.532 46.9609Z" fill="#263238"/>
<path d="M115.532 48.0586H120.863C120.912 48.0526 120.957 48.0288 120.99 47.9917C121.023 47.9546 121.041 47.9068 121.041 47.8572C121.041 47.8077 121.023 47.7599 120.99 47.7228C120.957 47.6857 120.912 47.6619 120.863 47.6559H115.532C115.483 47.6619 115.437 47.6857 115.405 47.7228C115.372 47.7599 115.354 47.8077 115.354 47.8572C115.354 47.9068 115.372 47.9546 115.405 47.9917C115.437 48.0288 115.483 48.0526 115.532 48.0586Z" fill="#263238"/>
<path d="M115.532 43.6707H121.131C121.18 43.6647 121.226 43.6409 121.258 43.6038C121.291 43.5667 121.309 43.5189 121.309 43.4694C121.309 43.4198 121.291 43.372 121.258 43.3349C121.226 43.2978 121.18 43.274 121.131 43.268H115.532C115.483 43.274 115.437 43.2978 115.405 43.3349C115.372 43.372 115.354 43.4198 115.354 43.4694C115.354 43.5189 115.372 43.5667 115.405 43.6038C115.437 43.6409 115.483 43.6647 115.532 43.6707Z" fill="#263238"/>
<g opacity="0.4">
<path d="M115.532 34.9156H121.668C121.717 34.9096 121.762 34.8859 121.795 34.8488C121.828 34.8117 121.846 34.7638 121.846 34.7143C121.846 34.6647 121.828 34.6169 121.795 34.5798C121.762 34.5427 121.717 34.5189 121.668 34.5129H115.532C115.483 34.5189 115.437 34.5427 115.405 34.5798C115.372 34.6169 115.354 34.6647 115.354 34.7143C115.354 34.7638 115.372 34.8117 115.405 34.8488C115.437 34.8859 115.483 34.9096 115.532 34.9156Z" fill="white"/>
<path d="M115.532 35.9985H120.863C120.912 35.9925 120.957 35.9687 120.99 35.9316C121.023 35.8945 121.041 35.8467 121.041 35.7971C121.041 35.7476 121.023 35.6997 120.99 35.6626C120.957 35.6256 120.912 35.6018 120.863 35.5958H115.532C115.483 35.6018 115.437 35.6256 115.405 35.6626C115.372 35.6997 115.354 35.7476 115.354 35.7971C115.354 35.8467 115.372 35.8945 115.405 35.9316C115.437 35.9687 115.483 35.9925 115.532 35.9985Z" fill="white"/>
<path d="M115.532 37.0933H120.863C120.912 37.0873 120.957 37.0635 120.99 37.0264C121.023 36.9893 121.041 36.9414 121.041 36.8919C121.041 36.8424 121.023 36.7945 120.99 36.7574C120.957 36.7203 120.912 36.6965 120.863 36.6906H115.532C115.483 36.6965 115.437 36.7203 115.405 36.7574C115.372 36.7945 115.354 36.8424 115.354 36.8919C115.354 36.9414 115.372 36.9893 115.405 37.0264C115.437 37.0635 115.483 37.0873 115.532 37.0933Z" fill="white"/>
<path d="M115.532 38.197H121.131C121.18 38.191 121.226 38.1672 121.258 38.1301C121.291 38.093 121.309 38.0451 121.309 37.9956C121.309 37.9461 121.291 37.8982 121.258 37.8611C121.226 37.824 121.18 37.8002 121.131 37.7943H115.532C115.483 37.8002 115.437 37.824 115.405 37.8611C115.372 37.8982 115.354 37.9461 115.354 37.9956C115.354 38.0451 115.372 38.093 115.405 38.1301C115.437 38.1672 115.483 38.191 115.532 38.197Z" fill="white"/>
<path d="M115.532 39.2858H120.058C120.108 39.2798 120.153 39.256 120.186 39.2189C120.218 39.1818 120.237 39.134 120.237 39.0844C120.237 39.0349 120.218 38.987 120.186 38.9499C120.153 38.9128 120.108 38.8891 120.058 38.8831H115.532C115.483 38.8891 115.437 38.9128 115.405 38.9499C115.372 38.987 115.354 39.0349 115.354 39.0844C115.354 39.134 115.372 39.1818 115.405 39.2189C115.437 39.256 115.483 39.2798 115.532 39.2858Z" fill="white"/>
<path d="M115.532 40.3834H121.668C121.717 40.3774 121.762 40.3536 121.795 40.3165C121.828 40.2794 121.846 40.2316 121.846 40.1821C121.846 40.1325 121.828 40.0847 121.795 40.0476C121.762 40.0105 121.717 39.9867 121.668 39.9807H115.532C115.483 39.9867 115.437 40.0105 115.405 40.0476C115.372 40.0847 115.354 40.1325 115.354 40.1821C115.354 40.2316 115.372 40.2794 115.405 40.3165C115.437 40.3536 115.483 40.3774 115.532 40.3834Z" fill="white"/>
<path d="M115.532 41.4782H120.863C120.912 41.4722 120.957 41.4484 120.99 41.4113C121.023 41.3742 121.041 41.3264 121.041 41.2769C121.041 41.2273 121.023 41.1795 120.99 41.1424C120.957 41.1053 120.912 41.0815 120.863 41.0755H115.532C115.483 41.0815 115.437 41.1053 115.405 41.1424C115.372 41.1795 115.354 41.2273 115.354 41.2769C115.354 41.3264 115.372 41.3742 115.405 41.4113C115.437 41.4484 115.483 41.4722 115.532 41.4782Z" fill="white"/>
<path d="M115.532 42.5759H120.863C120.912 42.5699 120.957 42.5461 120.99 42.509C121.023 42.4719 121.041 42.4241 121.041 42.3746C121.041 42.325 121.023 42.2772 120.99 42.2401C120.957 42.203 120.912 42.1792 120.863 42.1732H115.532C115.483 42.1792 115.437 42.203 115.405 42.2401C115.372 42.2772 115.354 42.325 115.354 42.3746C115.354 42.4241 115.372 42.4719 115.405 42.509C115.437 42.5461 115.483 42.5699 115.532 42.5759Z" fill="white"/>
<path d="M115.532 44.7595H120.058C120.108 44.7535 120.153 44.7297 120.186 44.6926C120.218 44.6555 120.237 44.6076 120.237 44.5581C120.237 44.5086 120.218 44.4607 120.186 44.4236C120.153 44.3865 120.108 44.3627 120.058 44.3568H115.532C115.483 44.3627 115.437 44.3865 115.405 44.4236C115.372 44.4607 115.354 44.5086 115.354 44.5581C115.354 44.6076 115.372 44.6555 115.405 44.6926C115.437 44.7297 115.483 44.7535 115.532 44.7595Z" fill="white"/>
<path d="M115.532 45.8661H121.668C121.717 45.8601 121.762 45.8364 121.795 45.7993C121.828 45.7622 121.846 45.7143 121.846 45.6648C121.846 45.6152 121.828 45.5674 121.795 45.5303C121.762 45.4932 121.717 45.4694 121.668 45.4634H115.532C115.483 45.4694 115.437 45.4932 115.405 45.5303C115.372 45.5674 115.354 45.6152 115.354 45.6648C115.354 45.7143 115.372 45.7622 115.405 45.7993C115.437 45.8364 115.483 45.8601 115.532 45.8661Z" fill="white"/>
<path d="M115.532 46.9609H120.863C120.912 46.9549 120.957 46.9311 120.99 46.894C121.023 46.857 121.041 46.8091 121.041 46.7596C121.041 46.71 121.023 46.6622 120.99 46.6251C120.957 46.588 120.912 46.5642 120.863 46.5582H115.532C115.483 46.5642 115.437 46.588 115.405 46.6251C115.372 46.6622 115.354 46.71 115.354 46.7596C115.354 46.8091 115.372 46.857 115.405 46.894C115.437 46.9311 115.483 46.9549 115.532 46.9609Z" fill="white"/>
<path d="M115.532 48.0586H120.863C120.912 48.0526 120.957 48.0288 120.99 47.9917C121.023 47.9546 121.041 47.9068 121.041 47.8572C121.041 47.8077 121.023 47.7599 120.99 47.7228C120.957 47.6857 120.912 47.6619 120.863 47.6559H115.532C115.483 47.6619 115.437 47.6857 115.405 47.7228C115.372 47.7599 115.354 47.8077 115.354 47.8572C115.354 47.9068 115.372 47.9546 115.405 47.9917C115.437 48.0288 115.483 48.0526 115.532 48.0586Z" fill="white"/>
<path d="M115.532 43.6706H121.131C121.18 43.6646 121.226 43.6409 121.258 43.6038C121.291 43.5667 121.309 43.5188 121.309 43.4693C121.309 43.4198 121.291 43.3719 121.258 43.3348C121.226 43.2977 121.18 43.2739 121.131 43.2679H115.532C115.483 43.2739 115.437 43.2977 115.405 43.3348C115.372 43.3719 115.354 43.4198 115.354 43.4693C115.354 43.5188 115.372 43.5667 115.405 43.6038C115.437 43.6409 115.483 43.6646 115.532 43.6706Z" fill="white"/>
</g>
<path d="M112.164 40.455L111.678 39.9688C111.506 40.1402 111.369 40.3442 111.276 40.569C111.183 40.7938 111.135 41.035 111.136 41.2783H111.825C111.824 41.1254 111.854 40.974 111.912 40.8327C111.97 40.6913 112.056 40.563 112.164 40.455Z" fill="#3452FF"/>
<path d="M112.984 42.4417C112.676 42.4409 112.381 42.318 112.164 42.0999C111.947 41.8818 111.824 41.5863 111.824 41.2783H111.136C111.136 41.7688 111.331 42.2392 111.677 42.5861C112.024 42.9329 112.494 43.1278 112.984 43.1278V42.4417Z" fill="#3452FF"/>
<path opacity="0.3" d="M112.984 42.4417C112.676 42.4409 112.381 42.318 112.164 42.0999C111.947 41.8818 111.824 41.5863 111.824 41.2783H111.136C111.136 41.7688 111.331 42.2392 111.677 42.5861C112.024 42.9329 112.494 43.1278 112.984 43.1278V42.4417Z" fill="white"/>
<path d="M112.164 40.4551C112.271 40.3468 112.399 40.261 112.54 40.2026C112.68 40.1442 112.831 40.1144 112.984 40.115V39.426C112.741 39.426 112.501 39.4739 112.277 39.5671C112.053 39.6603 111.85 39.7968 111.678 39.9689L112.164 40.4551Z" fill="#3452FF"/>
<path opacity="0.5" d="M112.164 40.4551C112.271 40.3468 112.399 40.261 112.54 40.2026C112.68 40.1442 112.831 40.1144 112.984 40.115V39.426C112.741 39.426 112.501 39.4739 112.277 39.5671C112.053 39.6603 111.85 39.7968 111.678 39.9689L112.164 40.4551Z" fill="black"/>
<path d="M114.134 41.2784C114.134 41.5869 114.012 41.8828 113.794 42.101C113.576 42.3191 113.28 42.4417 112.972 42.4417V43.1278C113.221 43.1378 113.469 43.0973 113.702 43.0088C113.936 42.9203 114.148 42.7856 114.328 42.6127C114.508 42.4399 114.651 42.2324 114.749 42.0029C114.846 41.7733 114.897 41.5264 114.897 41.2769C114.897 41.0273 114.846 40.7804 114.749 40.5508C114.651 40.3213 114.508 40.1138 114.328 39.941C114.148 39.7681 113.936 39.6334 113.702 39.5449C113.469 39.4564 113.221 39.4159 112.972 39.4259V40.115C113.125 40.1146 113.276 40.1444 113.417 40.2028C113.558 40.2611 113.686 40.3468 113.794 40.4549C113.902 40.563 113.988 40.6914 114.046 40.8327C114.105 40.974 114.134 41.1255 114.134 41.2784Z" fill="#3452FF"/>
<path opacity="0.2" d="M113.806 42.0986L114.292 42.5878C114.464 42.4162 114.601 42.2121 114.694 41.9874C114.787 41.7626 114.835 41.5216 114.834 41.2783H114.134C114.136 41.4299 114.108 41.5805 114.052 41.7213C113.996 41.8621 113.912 41.9903 113.806 42.0986Z" fill="black"/>
<path d="M112.164 36.959L111.678 37.4453C111.849 37.6179 112.053 37.7548 112.277 37.848C112.501 37.9412 112.741 37.9888 112.984 37.9882V37.3021C112.831 37.3021 112.68 37.2718 112.54 37.2129C112.399 37.154 112.271 37.0677 112.164 36.959Z" fill="#3452FF"/>
<path d="M114.134 36.1387C114.134 36.4473 114.012 36.7432 113.794 36.9613C113.576 37.1795 113.28 37.3021 112.972 37.3021V37.9882C113.462 37.9882 113.932 37.7934 114.279 37.4467C114.626 37.0999 114.822 36.6295 114.822 36.1387H114.134Z" fill="#3452FF"/>
<path opacity="0.3" d="M114.134 36.1387C114.134 36.4473 114.012 36.7432 113.794 36.9613C113.576 37.1795 113.28 37.3021 112.972 37.3021V37.9882C113.462 37.9882 113.932 37.7934 114.279 37.4467C114.626 37.0999 114.822 36.6295 114.822 36.1387H114.134Z" fill="white"/>
<path d="M112.164 36.959C112.056 36.8517 111.97 36.7239 111.912 36.5831C111.854 36.4422 111.824 36.2912 111.824 36.1387H111.136C111.135 36.3816 111.183 36.6222 111.276 36.8465C111.369 37.0708 111.506 37.2744 111.678 37.4453L112.164 36.959Z" fill="#3452FF"/>
<path opacity="0.5" d="M112.164 36.959C112.056 36.8517 111.97 36.7239 111.912 36.5831C111.854 36.4422 111.824 36.2912 111.824 36.1387H111.136C111.135 36.3816 111.183 36.6222 111.276 36.8465C111.369 37.0708 111.506 37.2744 111.678 37.4453L112.164 36.959Z" fill="black"/>
<path d="M112.984 34.9754C113.137 34.975 113.288 35.0048 113.429 35.0631C113.57 35.1214 113.698 35.2071 113.806 35.3152C113.914 35.4233 114 35.5517 114.058 35.6931C114.117 35.8344 114.146 35.9858 114.146 36.1387H114.834C114.844 35.8894 114.804 35.6406 114.716 35.4073C114.627 35.174 114.493 34.961 114.32 34.7811C114.147 34.6011 113.94 34.458 113.711 34.3602C113.481 34.2624 113.235 34.212 112.985 34.212C112.736 34.212 112.489 34.2624 112.26 34.3602C112.031 34.458 111.823 34.6011 111.651 34.7811C111.478 34.961 111.343 35.174 111.255 35.4073C111.167 35.6406 111.126 35.8894 111.136 36.1387H111.825C111.824 35.9861 111.854 35.8349 111.912 35.6937C111.97 35.5526 112.055 35.4243 112.163 35.3163C112.271 35.2082 112.399 35.1225 112.539 35.064C112.68 35.0055 112.831 34.9754 112.984 34.9754Z" fill="#3452FF"/>
<path opacity="0.2" d="M113.806 35.3155L114.292 34.8292C114.121 34.6564 113.917 34.5194 113.692 34.4262C113.468 34.333 113.227 34.2854 112.984 34.2863V34.9754C113.137 34.9746 113.288 35.0042 113.429 35.0626C113.571 35.121 113.699 35.2069 113.806 35.3155Z" fill="black"/>
<path d="M113.806 45.5947L114.292 45.1085C114.465 45.2798 114.601 45.4838 114.695 45.7087C114.788 45.9335 114.835 46.1746 114.834 46.418H114.134C114.136 46.2659 114.108 46.1149 114.052 45.9737C113.996 45.8324 113.912 45.7036 113.806 45.5947Z" fill="#3452FF"/>
<path d="M112.984 47.5814C113.292 47.5814 113.588 47.4588 113.806 47.2406C114.024 47.0225 114.146 46.7266 114.146 46.418H114.834C114.834 46.9093 114.639 47.3805 114.292 47.7279C113.945 48.0753 113.475 48.2705 112.984 48.2705V47.5814Z" fill="#3452FF"/>
<path opacity="0.3" d="M112.984 47.5814C113.292 47.5814 113.588 47.4588 113.806 47.2406C114.024 47.0225 114.146 46.7266 114.146 46.418H114.834C114.834 46.9093 114.639 47.3805 114.292 47.7279C113.945 48.0753 113.475 48.2705 112.984 48.2705V47.5814Z" fill="white"/>
<path d="M113.806 45.5947C113.698 45.4867 113.57 45.4011 113.429 45.3427C113.288 45.2844 113.137 45.2544 112.984 45.2546V44.5656C113.227 44.5653 113.468 44.6132 113.692 44.7063C113.917 44.7995 114.121 44.9362 114.292 45.1085L113.806 45.5947Z" fill="#3452FF"/>
<path opacity="0.5" d="M113.806 45.5947C113.698 45.4867 113.57 45.4011 113.429 45.3427C113.288 45.2844 113.137 45.2544 112.984 45.2546V44.5656C113.227 44.5653 113.468 44.6132 113.692 44.7063C113.917 44.7995 114.121 44.9362 114.292 45.1085L113.806 45.5947Z" fill="black"/>
<path d="M111.825 46.418C111.825 46.726 111.947 47.0215 112.164 47.2395C112.381 47.4576 112.676 47.5805 112.984 47.5813V48.2704C112.493 48.2704 112.022 48.0752 111.675 47.7278C111.328 47.3804 111.133 46.9093 111.133 46.418C111.133 45.9267 111.328 45.4555 111.675 45.1081C112.022 44.7607 112.493 44.5656 112.984 44.5656V45.2546C112.676 45.2554 112.381 45.3783 112.164 45.5964C111.947 45.8145 111.825 46.1099 111.825 46.418Z" fill="#3452FF"/>
<path opacity="0.2" d="M112.164 47.2414L111.678 47.7425C111.506 47.5709 111.37 47.3668 111.277 47.142C111.183 46.9173 111.136 46.6763 111.136 46.433H111.824C111.827 46.7366 111.949 47.027 112.164 47.2414Z" fill="black"/>
<path d="M78.2071 66.1563H85.4157C85.6252 66.1563 85.826 66.2396 85.9741 66.3878C86.1222 66.5361 86.2054 66.7371 86.2054 66.9468V67.3853C86.2054 67.5949 86.1222 67.796 85.9741 67.9443C85.826 68.0925 85.6252 68.1758 85.4157 68.1758H78.2071V66.1563Z" fill="#263238"/>
<path d="M64.1148 66.1563H79.4528C79.6473 66.1563 79.8337 66.2336 79.9712 66.3712C80.1087 66.5089 80.1859 66.6955 80.1859 66.8901V67.439C80.1859 67.6336 80.1087 67.8203 79.9712 67.9579C79.8337 68.0955 79.6473 68.1728 79.4528 68.1728H64.1148C63.9196 68.1728 63.7323 68.0952 63.5943 67.957C63.4563 67.8188 63.3787 67.6314 63.3787 67.436V66.8871C63.3791 66.7908 63.3985 66.6954 63.4357 66.6066C63.4729 66.5177 63.5272 66.437 63.5955 66.3691C63.6639 66.3013 63.7449 66.2475 63.834 66.211C63.9231 66.1745 64.0185 66.1559 64.1148 66.1563Z" fill="black"/>
<path opacity="0.5" d="M64.1148 66.1563H79.4528C79.6473 66.1563 79.8337 66.2336 79.9712 66.3712C80.1087 66.5089 80.1859 66.6955 80.1859 66.8901V67.439C80.1859 67.6336 80.1087 67.8203 79.9712 67.9579C79.8337 68.0955 79.6473 68.1728 79.4528 68.1728H64.1148C63.9196 68.1728 63.7323 68.0952 63.5943 67.957C63.4563 67.8188 63.3787 67.6314 63.3787 67.436V66.8871C63.3791 66.7908 63.3985 66.6954 63.4357 66.6066C63.4729 66.5177 63.5272 66.437 63.5955 66.3691C63.6639 66.3013 63.7449 66.2475 63.834 66.211C63.9231 66.1745 64.0185 66.1559 64.1148 66.1563Z" fill="white"/>
<path d="M76.0854 66.1563H79.9714L77.4831 56.8524H76.0854V66.1563Z" fill="#263238"/>
<path d="M79.405 66.1563H71.4723L70.6826 56.8524H76.9167L79.405 66.1563Z" fill="black"/>
<path opacity="0.3" d="M79.405 66.1563H71.4723L70.6826 56.8524H76.9167L79.405 66.1563Z" fill="white"/>
<path d="M99.3861 30.1101H95.7803L92.9761 62.0607H96.5819C96.9547 62.0546 97.3122 61.9119 97.5868 61.6595C97.8614 61.4072 98.0341 61.0628 98.0719 60.6915L100.623 31.4883C100.644 31.3141 100.627 31.1376 100.574 30.9704C100.521 30.8032 100.433 30.6492 100.316 30.5187C100.199 30.3883 100.056 30.2844 99.8953 30.2139C99.7349 30.1434 99.5613 30.108 99.3861 30.1101Z" fill="#263238"/>
<path d="M95.7623 62.0607H52.1112C51.9361 62.064 51.7624 62.0297 51.6016 61.9604C51.4408 61.891 51.2966 61.7881 51.1787 61.6585C51.0608 61.5289 50.9719 61.3756 50.9179 61.2089C50.8639 61.0421 50.8461 60.8658 50.8656 60.6916L53.4165 31.4883C53.455 31.1176 53.6279 30.7739 53.9025 30.5222C54.177 30.2704 54.5342 30.1281 54.9065 30.1221H98.5545C98.7293 30.1189 98.9028 30.1531 99.0634 30.2223C99.224 30.2915 99.368 30.3941 99.4858 30.5234C99.6037 30.6526 99.6927 30.8055 99.7469 30.9719C99.8011 31.1383 99.8192 31.3143 99.8002 31.4883L97.2493 60.6916C97.2115 61.0623 97.0393 61.4063 96.7653 61.6586C96.4913 61.9109 96.1345 62.0539 95.7623 62.0607Z" fill="#263238"/>
<path opacity="0.7" d="M95.7623 62.0607H52.1112C51.9361 62.064 51.7624 62.0297 51.6016 61.9604C51.4408 61.891 51.2966 61.7881 51.1787 61.6585C51.0608 61.5289 50.9719 61.3756 50.9179 61.2089C50.8639 61.0421 50.8461 60.8658 50.8656 60.6916L53.4165 31.4883C53.455 31.1176 53.6279 30.7739 53.9025 30.5222C54.177 30.2704 54.5342 30.1281 54.9065 30.1221H98.5545C98.7293 30.1189 98.9028 30.1531 99.0634 30.2223C99.224 30.2915 99.368 30.3941 99.4858 30.5234C99.6037 30.6526 99.6927 30.8055 99.7469 30.9719C99.8011 31.1383 99.8192 31.3143 99.8002 31.4883L97.2493 60.6916C97.2115 61.0623 97.0393 61.4063 96.7653 61.6586C96.4913 61.9109 96.1345 62.0539 95.7623 62.0607Z" fill="white"/>
<path opacity="0.9" d="M94.5972 58.3201H53.9381C53.7855 58.3233 53.6341 58.2937 53.494 58.2333C53.3538 58.1729 53.2283 58.0831 53.1258 57.9701C53.0232 57.857 52.9461 57.7232 52.8997 57.5777C52.8532 57.4323 52.8384 57.2785 52.8563 57.1269L54.9751 32.8634C55.0071 32.5409 55.1561 32.2414 55.3939 32.0215C55.6317 31.8016 55.9418 31.6767 56.2655 31.6702H96.9246C97.0771 31.667 97.2285 31.6966 97.3687 31.757C97.5088 31.8174 97.6344 31.9071 97.7369 32.0202C97.8394 32.1333 97.9165 32.2671 97.963 32.4126C98.0095 32.558 98.0242 32.7117 98.0063 32.8634L95.8875 57.1269C95.8555 57.4493 95.7065 57.7489 95.4687 57.9687C95.2309 58.1886 94.9209 58.3136 94.5972 58.3201Z" fill="#FAFAFA"/>
<path d="M83.9498 40.2492H82.5283L82.7757 37.4005H84.2001L83.9498 40.2492Z" fill="#3452FF"/>
<path opacity="0.2" d="M83.9498 40.2492H82.5283L82.7757 37.4005H84.2001L83.9498 40.2492Z" fill="black"/>
<path d="M86.7954 40.2492H85.374L85.7465 35.9776H87.1679L86.7954 40.2492Z" fill="#3452FF"/>
<path d="M89.6415 40.2492H88.2171L88.53 36.6906H89.9515L89.6415 40.2492Z" fill="#3452FF"/>
<path d="M92.4873 40.2492H91.0629L91.5605 34.5518H92.985L92.4873 40.2492Z" fill="#3452FF"/>
<path opacity="0.4" d="M92.4873 40.2492H91.0629L91.5605 34.5518H92.985L92.4873 40.2492Z" fill="black"/>
<path d="M93.9088 39.9867H81.3928C81.5497 38.177 81.7087 36.3663 81.8696 34.5547C81.8994 34.2176 81.3719 34.2176 81.3421 34.5547C81.1792 36.4519 81.0133 38.35 80.8445 40.2492C80.8453 40.3186 80.8731 40.3849 80.9221 40.4339C80.9712 40.483 81.0374 40.5109 81.1067 40.5117H93.9207C93.9903 40.5101 94.0563 40.4809 94.1044 40.4306C94.1525 40.3802 94.1786 40.3128 94.177 40.2432C94.1754 40.1736 94.1463 40.1075 94.096 40.0593C94.0457 40.0112 93.9784 39.9851 93.9088 39.9867Z" fill="#3452FF"/>
<path opacity="0.5" d="M93.9088 39.9867H81.3928C81.5497 38.177 81.7087 36.3663 81.8696 34.5547C81.8994 34.2176 81.3719 34.2176 81.3421 34.5547C81.1792 36.4519 81.0133 38.35 80.8445 40.2492C80.8453 40.3186 80.8731 40.3849 80.9221 40.4339C80.9712 40.483 81.0374 40.5109 81.1067 40.5117H93.9207C93.9903 40.5101 94.0563 40.4809 94.1044 40.4306C94.1525 40.3802 94.1786 40.3128 94.177 40.2432C94.1754 40.1736 94.1463 40.1075 94.096 40.0593C94.0457 40.0112 93.9784 39.9851 93.9088 39.9867Z" fill="white"/>
<path d="M60.494 38.707L59.5672 39.5631C59.8487 39.8676 60.1911 40.1093 60.572 40.2728C60.953 40.4362 61.364 40.5176 61.7784 40.5117L61.8827 39.3185C61.6213 39.32 61.3625 39.2664 61.1232 39.161C60.8839 39.0556 60.6695 38.9009 60.494 38.707Z" fill="#3452FF"/>
<path opacity="0.5" d="M60.494 38.707L59.5672 39.5631C59.8487 39.8676 60.1911 40.1093 60.572 40.2728C60.953 40.4362 61.364 40.5176 61.7784 40.5117L61.8827 39.3185C61.6213 39.32 61.3625 39.2664 61.1232 39.161C60.8839 39.0556 60.6695 38.9009 60.494 38.707Z" fill="black"/>
<path d="M64.085 37.2663C64.0283 37.8188 63.7714 38.3314 63.3629 38.7073C62.9545 39.0832 62.4226 39.2964 61.8679 39.3066L61.7635 40.4998C62.6463 40.484 63.4927 40.1451 64.1428 39.5471C64.7929 38.9491 65.2017 38.1335 65.2919 37.2543L64.085 37.2663Z" fill="#3452FF"/>
<path opacity="0.1" d="M64.085 37.2663C64.0283 37.8188 63.7714 38.3314 63.3629 38.7073C62.9545 39.0832 62.4226 39.2964 61.8679 39.3066L61.7635 40.4998C62.6463 40.484 63.4927 40.1451 64.1428 39.5471C64.7929 38.9491 65.2017 38.1335 65.2919 37.2543L64.085 37.2663Z" fill="black"/>
<path d="M60.4941 38.7071C60.3196 38.513 60.1876 38.2846 60.1065 38.0365C60.0255 37.7884 59.9971 37.526 60.0232 37.2663H58.8312C58.789 37.6802 58.8337 38.0984 58.9625 38.4939C59.0913 38.8895 59.3014 39.2537 59.5792 39.5632L60.4941 38.7071Z" fill="#3452FF"/>
<path d="M62.2255 35.214C62.4866 35.209 62.7457 35.2598 62.9857 35.3631C63.2256 35.4663 63.4407 35.6197 63.6167 35.8128C63.7927 36.0059 63.9255 36.2344 64.0063 36.483C64.087 36.7316 64.1139 36.9946 64.085 37.2544H65.277C65.3199 36.8434 65.2755 36.428 65.1466 36.0354C65.0177 35.6429 64.8074 35.2821 64.5293 34.9767C64.2512 34.6713 63.9118 34.4282 63.5332 34.2635C63.1546 34.0988 62.7455 34.0161 62.3328 34.0208C61.4495 34.0367 60.6028 34.376 59.9526 34.9746C59.3024 35.5732 58.8939 36.3896 58.8044 37.2693H59.9964C60.0493 36.7118 60.3062 36.1936 60.7176 35.8142C61.1291 35.4348 61.6661 35.2211 62.2255 35.214Z" fill="#3452FF"/>
<path opacity="0.2" d="M62.2255 35.214C62.4866 35.209 62.7457 35.2598 62.9857 35.3631C63.2256 35.4663 63.4407 35.6197 63.6167 35.8128C63.7927 36.0059 63.9255 36.2344 64.0063 36.483C64.087 36.7316 64.1139 36.9946 64.085 37.2544H65.277C65.3199 36.8434 65.2755 36.428 65.1466 36.0354C65.0177 35.6429 64.8074 35.2821 64.5293 34.9767C64.2512 34.6713 63.9118 34.4282 63.5332 34.2635C63.1546 34.0988 62.7455 34.0161 62.3328 34.0208C61.4495 34.0367 60.6028 34.376 59.9526 34.9746C59.3024 35.5732 58.8939 36.3896 58.8044 37.2693H59.9964C60.0493 36.7118 60.3062 36.1936 60.7176 35.8142C61.1291 35.4348 61.6661 35.2211 62.2255 35.214Z" fill="white"/>
<path opacity="0.6" d="M63.6141 35.8106L64.5409 34.9574C64.2602 34.6525 63.9185 34.4102 63.5381 34.2463C63.1576 34.0823 62.7469 34.0004 62.3327 34.0059L62.2255 35.1991C62.4869 35.1972 62.7458 35.2507 62.9852 35.3561C63.2245 35.4615 63.4389 35.6164 63.6141 35.8106Z" fill="white"/>
<path d="M69.5146 38.707L68.5878 39.5631C68.8695 39.8674 69.2119 40.1091 69.5928 40.2725C69.9737 40.4359 70.3846 40.5174 70.799 40.5117L70.9063 39.3185C70.6444 39.3203 70.3851 39.2667 70.1453 39.1613C69.9055 39.056 69.6906 38.9012 69.5146 38.707Z" fill="#3452FF"/>
<path opacity="0.5" d="M69.5146 38.707L68.5878 39.5631C68.8695 39.8674 69.2119 40.1091 69.5928 40.2725C69.9737 40.4359 70.3846 40.5174 70.799 40.5117L70.9063 39.3185C70.6444 39.3203 70.3851 39.2667 70.1453 39.1613C69.9055 39.056 69.6906 38.9012 69.5146 38.707Z" fill="black"/>
<path d="M73.1203 37.2663C73.0637 37.8183 72.8073 38.3305 72.3994 38.7063C71.9915 39.0822 71.4604 39.2957 70.9062 39.3066L70.7989 40.4998C71.6816 40.484 72.528 40.1451 73.1782 39.5471C73.8283 38.9491 74.237 38.1335 74.3272 37.2543L73.1203 37.2663Z" fill="#3452FF"/>
<path opacity="0.1" d="M73.1203 37.2663C73.0637 37.8183 72.8073 38.3305 72.3994 38.7063C71.9915 39.0822 71.4604 39.2957 70.9062 39.3066L70.7989 40.4998C71.6816 40.484 72.528 40.1451 73.1782 39.5471C73.8283 38.9491 74.237 38.1335 74.3272 37.2543L73.1203 37.2663Z" fill="black"/>
<path d="M69.5144 38.7071C69.3404 38.5127 69.2087 38.2843 69.1277 38.0362C69.0466 37.7882 69.018 37.526 69.0435 37.2663H67.8515C67.8093 37.6802 67.854 38.0984 67.9829 38.4939C68.1117 38.8895 68.3217 39.2537 68.5995 39.5632L69.5144 38.7071Z" fill="#3452FF"/>
<path d="M71.2606 35.214C71.5217 35.209 71.7809 35.2598 72.0208 35.3631C72.2607 35.4663 72.4759 35.6197 72.6519 35.8128C72.8279 36.0059 72.9607 36.2344 73.0414 36.483C73.1222 36.7316 73.149 36.9946 73.1202 37.2544H74.3122C74.3551 36.8434 74.3106 36.428 74.1818 36.0354C74.0529 35.6429 73.8425 35.2821 73.5645 34.9767C73.2864 34.6713 72.9469 34.4282 72.5684 34.2635C72.1898 34.0988 71.7807 34.0161 71.3679 34.0208C70.4847 34.0367 69.6379 34.376 68.9877 34.9746C68.3376 35.5732 67.9291 36.3896 67.8396 37.2693H69.0316C69.0845 36.7118 69.3413 36.1936 69.7528 35.8142C70.1643 35.4348 70.7013 35.2211 71.2606 35.214Z" fill="#3452FF"/>
<path opacity="0.2" d="M71.2606 35.214C71.5217 35.209 71.7809 35.2598 72.0208 35.3631C72.2607 35.4663 72.4759 35.6197 72.6519 35.8128C72.8279 36.0059 72.9607 36.2344 73.0414 36.483C73.1222 36.7316 73.149 36.9946 73.1202 37.2544H74.3122C74.3551 36.8434 74.3106 36.428 74.1818 36.0354C74.0529 35.6429 73.8425 35.2821 73.5645 34.9767C73.2864 34.6713 72.9469 34.4282 72.5684 34.2635C72.1898 34.0988 71.7807 34.0161 71.3679 34.0208C70.4847 34.0367 69.6379 34.376 68.9877 34.9746C68.3376 35.5732 67.9291 36.3896 67.8396 37.2693H69.0316C69.0845 36.7118 69.3413 36.1936 69.7528 35.8142C70.1643 35.4348 70.7013 35.2211 71.2606 35.214Z" fill="white"/>
<path opacity="0.6" d="M72.6495 35.8106L73.5763 34.9574C73.2956 34.6525 72.9539 34.4102 72.5734 34.2463C72.1929 34.0823 71.7823 34.0004 71.3681 34.0059L71.2608 35.1991C71.5223 35.1972 71.7812 35.2507 72.0205 35.3561C72.2598 35.4615 72.4742 35.6164 72.6495 35.8106Z" fill="white"/>
<path d="M83.0914 50.815H81.3928L81.5388 49.1147H83.2404L83.0914 50.815ZM81.7921 50.4451H82.7516L82.8381 49.4846H81.8785L81.7921 50.4451Z" fill="#3452FF"/>
<path d="M82.8648 53.4101H81.1662L81.3122 51.7098H83.0138L82.8648 53.4101ZM81.5685 53.0402H82.5281L82.6115 52.0797H81.6519L81.5685 53.0402Z" fill="#3452FF"/>
<path d="M82.6384 55.9904H80.9398L81.0888 54.2931H82.7874L82.6384 55.9904ZM81.354 55.6235H82.3136L82.397 54.66H81.4375L81.354 55.6235Z" fill="#3452FF"/>
<path d="M84.2685 50.4271C84.2154 50.4283 84.1626 50.4181 84.1137 50.3971C84.0649 50.3762 84.021 50.3451 83.9852 50.3058C83.9493 50.2665 83.9223 50.22 83.9059 50.1694C83.8895 50.1188 83.8841 50.0653 83.8901 50.0124C83.9017 49.9003 83.9538 49.7963 84.0367 49.7199C84.1195 49.6435 84.2274 49.6001 84.34 49.5978H90.0229C90.076 49.5966 90.1288 49.6068 90.1777 49.6277C90.2265 49.6487 90.2704 49.6798 90.3062 49.7191C90.342 49.7584 90.3691 49.8049 90.3855 49.8555C90.4019 49.9061 90.4073 49.9596 90.4013 50.0124C90.3904 50.1248 90.3384 50.2292 90.2554 50.3057C90.1724 50.3822 90.0642 50.4254 89.9514 50.4271H84.2685Z" fill="#3452FF"/>
<path opacity="0.7" d="M84.2685 50.4271C84.2154 50.4283 84.1626 50.4181 84.1137 50.3971C84.0649 50.3762 84.021 50.3451 83.9852 50.3058C83.9493 50.2665 83.9223 50.22 83.9059 50.1694C83.8895 50.1188 83.8841 50.0653 83.8901 50.0124C83.9017 49.9003 83.9538 49.7963 84.0367 49.7199C84.1195 49.6435 84.2274 49.6001 84.34 49.5978H90.0229C90.076 49.5966 90.1288 49.6068 90.1777 49.6277C90.2265 49.6487 90.2704 49.6798 90.3062 49.7191C90.342 49.7584 90.3691 49.8049 90.3855 49.8555C90.4019 49.9061 90.4073 49.9596 90.4013 50.0124C90.3904 50.1248 90.3384 50.2292 90.2554 50.3057C90.1724 50.3822 90.0642 50.4254 89.9514 50.4271H84.2685Z" fill="white"/>
<path d="M83.8183 55.5578C83.7655 55.5581 83.7131 55.5472 83.6647 55.526C83.6163 55.5047 83.5729 55.4736 83.5372 55.4345C83.5016 55.3955 83.4745 55.3494 83.4577 55.2992C83.441 55.249 83.4349 55.1959 83.4399 55.1432C83.4515 55.0305 83.5041 54.9261 83.5876 54.8497C83.6711 54.7732 83.7797 54.7301 83.8928 54.7286H88.6608C88.7137 54.7278 88.7661 54.7383 88.8147 54.7594C88.8632 54.7805 88.9066 54.8117 88.9421 54.851C88.9777 54.8902 89.0044 54.9365 89.0207 54.9869C89.0369 55.0373 89.0422 55.0906 89.0363 55.1432C89.0247 55.2553 88.9726 55.3594 88.8897 55.4357C88.8068 55.5121 88.6989 55.5555 88.5863 55.5578H83.8183Z" fill="#3452FF"/>
<path opacity="0.4" d="M83.8183 55.5578C83.7655 55.5581 83.7131 55.5472 83.6647 55.526C83.6163 55.5047 83.5729 55.4736 83.5372 55.4345C83.5016 55.3955 83.4745 55.3494 83.4577 55.2992C83.441 55.249 83.4349 55.1959 83.4399 55.1432C83.4515 55.0305 83.5041 54.9261 83.5876 54.8497C83.6711 54.7732 83.7797 54.7301 83.8928 54.7286H88.6608C88.7137 54.7278 88.7661 54.7383 88.8147 54.7594C88.8632 54.7805 88.9066 54.8117 88.9421 54.851C88.9777 54.8902 89.0044 54.9365 89.0207 54.9869C89.0369 55.0373 89.0422 55.0906 89.0363 55.1432C89.0247 55.2553 88.9726 55.3594 88.8897 55.4357C88.8068 55.5121 88.6989 55.5555 88.5863 55.5578H83.8183Z" fill="white"/>
<path d="M84.036 52.9686C83.983 52.9693 83.9304 52.9587 83.8818 52.9377C83.8332 52.9166 83.7895 52.8854 83.7538 52.8463C83.718 52.8071 83.691 52.7608 83.6744 52.7104C83.6578 52.66 83.6521 52.6067 83.6575 52.5539C83.6692 52.4413 83.7218 52.3369 83.8053 52.2604C83.8887 52.184 83.9974 52.1409 84.1105 52.1393H88.506C88.559 52.1386 88.6115 52.1491 88.6602 52.1702C88.7088 52.1913 88.7524 52.2224 88.7882 52.2616C88.8239 52.3008 88.851 52.3471 88.8676 52.3975C88.8842 52.4478 88.8899 52.5012 88.8844 52.5539C88.8728 52.6661 88.8207 52.7701 88.7378 52.8465C88.655 52.9229 88.5471 52.9663 88.4345 52.9686H84.036Z" fill="#3452FF"/>
<path opacity="0.2" d="M84.036 52.9686C83.983 52.9693 83.9304 52.9587 83.8818 52.9377C83.8332 52.9166 83.7895 52.8854 83.7538 52.8463C83.718 52.8071 83.691 52.7608 83.6744 52.7104C83.6578 52.66 83.6521 52.6067 83.6575 52.5539C83.6692 52.4413 83.7218 52.3369 83.8053 52.2604C83.8887 52.184 83.9974 52.1409 84.1105 52.1393H88.506C88.559 52.1386 88.6115 52.1491 88.6602 52.1702C88.7088 52.1913 88.7524 52.2224 88.7882 52.2616C88.8239 52.3008 88.851 52.3471 88.8676 52.3975C88.8842 52.4478 88.8899 52.5012 88.8844 52.5539C88.8728 52.6661 88.8207 52.7701 88.7378 52.8465C88.655 52.9229 88.5471 52.9663 88.4345 52.9686H84.036Z" fill="white"/>
<path d="M78.532 53.2788C78.1068 52.6823 77.6787 52.0966 77.2476 51.5219C77.2264 51.4876 77.1978 51.4585 77.1639 51.4367C77.13 51.4149 77.0917 51.4009 77.0517 51.3958C77.0118 51.3906 76.9712 51.3944 76.9329 51.407C76.8946 51.4195 76.8596 51.4404 76.8304 51.4682L75.4685 52.9597C75.1109 52.3631 74.7563 51.7874 74.3987 51.1997C74.3781 51.1648 74.3499 51.135 74.3161 51.1126C74.2824 51.0901 74.244 51.0756 74.2038 51.0702C74.1637 51.0647 74.1228 51.0685 74.0843 51.0811C74.0458 51.0937 74.0107 51.1149 73.9815 51.143C73.5107 51.5756 73.0518 52.023 72.569 52.4436C72.426 52.3661 72.271 52.2766 72.1458 52.193L71.371 51.7337C71.3099 51.6995 71.2378 51.6903 71.1701 51.7081C71.1023 51.7259 71.044 51.7693 71.0075 51.8291L69.6307 53.8247C69.289 53.1605 68.9473 52.4953 68.6056 51.8291C68.5691 51.7693 68.5108 51.7259 68.443 51.7081C68.3752 51.6903 68.3032 51.6995 68.242 51.7337L67.5835 52.0857C67.4523 52.1602 66.9875 52.384 66.8742 52.4824C66.6907 52.3574 66.4996 52.2438 66.3021 52.1423L65.6137 51.7337C65.5528 51.6981 65.4803 51.6881 65.4121 51.706C65.344 51.7239 65.2857 51.7682 65.2501 51.8291C65.2146 51.89 65.2046 51.9626 65.2225 52.0309C65.2404 52.0991 65.2846 52.1574 65.3455 52.193C65.7269 52.4198 66.4064 53.0492 66.8563 53.0462C67.3063 53.0432 67.8427 52.6166 68.2689 52.3392L69.3685 54.475C69.3924 54.5145 69.426 54.5472 69.4662 54.5699C69.5064 54.5926 69.5518 54.6045 69.5979 54.6045C69.6441 54.6045 69.6894 54.5926 69.7296 54.5699C69.7698 54.5472 69.8035 54.5145 69.8274 54.475L71.3174 52.3183L72.4736 53.0014C72.5246 53.0301 72.5835 53.0416 72.6415 53.0341C72.6995 53.0265 72.7535 53.0004 72.7955 52.9597L74.1126 51.7486L75.2003 53.5384C75.2212 53.5731 75.2496 53.6026 75.2835 53.6248C75.3174 53.6469 75.3558 53.6611 75.396 53.6663C75.4361 53.6714 75.4769 53.6674 75.5152 53.6546C75.5536 53.6417 75.5886 53.6204 75.6175 53.5921L77.0003 52.0648L78.076 53.5384C78.2757 53.8188 78.7346 53.5533 78.532 53.2788Z" fill="#3452FF"/>
<path d="M78.1028 55.4594H65.4408C65.6017 53.6278 65.7617 51.7963 65.9206 49.9648C65.9504 49.6247 65.42 49.6247 65.3902 49.9648L64.8865 55.7249C64.8873 55.795 64.9155 55.8621 64.9651 55.9117C65.0146 55.9614 65.0817 55.9896 65.1518 55.9904H78.1028C78.1732 55.9904 78.2406 55.9624 78.2904 55.9126C78.3401 55.8628 78.3681 55.7953 78.3681 55.7249C78.3681 55.6545 78.3401 55.5869 78.2904 55.5372C78.2406 55.4874 78.1732 55.4594 78.1028 55.4594Z" fill="#3452FF"/>
<path opacity="0.5" d="M78.1028 55.4594H65.4408C65.6017 53.6278 65.7617 51.7963 65.9206 49.9648C65.9504 49.6247 65.42 49.6247 65.3902 49.9648L64.8865 55.7249C64.8873 55.795 64.9155 55.8621 64.9651 55.9117C65.0146 55.9614 65.0817 55.9896 65.1518 55.9904H78.1028C78.1732 55.9904 78.2406 55.9624 78.2904 55.9126C78.3401 55.8628 78.3681 55.7953 78.3681 55.7249C78.3681 55.6545 78.3401 55.5869 78.2904 55.5372C78.2406 55.4874 78.1732 55.4594 78.1028 55.4594Z" fill="white"/>
<path d="M91.8882 47.65H69.2909L69.7945 41.878H92.3919L91.8882 47.65Z" fill="#3452FF"/>
<path opacity="0.9" d="M91.8882 47.65H69.2909L69.7945 41.878H92.3919L91.8882 47.65Z" fill="white"/>
<path d="M92.2877 48.0885H68.8142L69.4102 41.4395H92.8837L92.2877 48.0885ZM69.7678 47.2115H91.486L91.9152 42.3194H70.1969L69.7678 47.2115Z" fill="#263238"/>
<g opacity="0.9">
<path d="M74.396 45.5379L74.3542 45.9973H72.45L72.6646 43.5334H74.5241L74.4854 43.9898H73.192L73.1444 44.5267H74.2857L74.247 44.9682H73.1056L73.055 45.5379H74.396Z" fill="white"/>
<path d="M76.3328 45.9973L75.8142 45.1412L75.1557 45.9973H74.5001L75.5192 44.7445L74.7593 43.5334H75.406L75.9036 44.3328L76.5265 43.5334H77.1433L76.1808 44.7266L76.9884 46.0003L76.3328 45.9973Z" fill="white"/>
<path d="M77.8706 43.9987H77.0839L77.1256 43.5334H79.2683L79.2295 43.9987H78.4428L78.267 45.9973H77.6978L77.8706 43.9987Z" fill="white"/>
<path d="M80.928 45.9974L80.5138 45.3113H79.9893L79.9297 45.9974H79.3605L79.5751 43.5334H80.639C80.8313 43.5283 81.0224 43.5649 81.1992 43.6408C81.3412 43.7028 81.4609 43.8069 81.5419 43.9391C81.619 44.0856 81.6501 44.2519 81.6313 44.4164C81.6185 44.5865 81.5587 44.7497 81.4585 44.8877C81.3538 45.0218 81.2148 45.1249 81.0562 45.186L81.5389 45.9795L80.928 45.9974ZM80.9489 44.1091C80.8395 44.027 80.7038 43.9877 80.5674 43.9988H80.1026L80.0281 44.8549H80.4929C80.6346 44.8638 80.7752 44.825 80.8923 44.7445C80.9396 44.7059 80.9784 44.6579 81.0061 44.6034C81.0338 44.549 81.0498 44.4893 81.0532 44.4283C81.0624 44.3707 81.0578 44.3116 81.0396 44.2561C81.0215 44.2006 80.9904 44.1502 80.9489 44.1091Z" fill="white"/>
<path d="M83.6101 45.4693H82.4688L82.2035 45.9973H81.6075L82.9187 43.5334H83.482L84.376 45.9973H83.78L83.6101 45.4693ZM83.4671 45.0338L83.1691 44.0912L82.6982 45.0338H83.4671Z" fill="white"/>
<path d="M85.1089 45.875C84.9207 45.7713 84.7681 45.6133 84.6708 45.4216C84.5681 45.2192 84.5277 44.9908 84.5546 44.7654C84.5727 44.5303 84.6518 44.3041 84.7841 44.1091C84.916 43.9166 85.0943 43.7607 85.3026 43.6557C85.5183 43.5451 85.7576 43.4887 85.9999 43.4916C86.1953 43.4876 86.3893 43.5252 86.5691 43.602C86.729 43.6751 86.8683 43.7868 86.9744 43.9271L86.578 44.2642C86.5103 44.1698 86.4207 44.0933 86.3169 44.0413C86.213 43.9894 86.0981 43.9635 85.982 43.9659C85.838 43.9641 85.6957 43.998 85.5678 44.0644C85.4449 44.1291 85.3419 44.226 85.2698 44.3448C85.1904 44.4672 85.1432 44.6078 85.1327 44.7534C85.1169 44.8931 85.1396 45.0344 85.1983 45.1621C85.2519 45.2787 85.3404 45.3756 85.4516 45.4395C85.5728 45.5096 85.711 45.5447 85.8509 45.5409C85.9733 45.5402 86.0941 45.5132 86.2051 45.4617C86.3162 45.4103 86.4149 45.3356 86.4946 45.2426L86.8313 45.5797C86.7029 45.7226 86.544 45.8347 86.3665 45.9078C86.1774 45.9853 85.9747 46.0239 85.7705 46.0212C85.5411 46.0297 85.3134 45.9794 85.1089 45.875Z" fill="white"/>
<path d="M87.8357 43.9987H87.049L87.0907 43.5334H89.2334L89.1946 43.9987H88.4049L88.2321 45.9973H87.6629L87.8357 43.9987Z" fill="white"/>
</g>
<path d="M107.992 70.2101H46.7146V104.505H107.992V70.2101Z" fill="#3452FF"/>
<path d="M42.191 104.505H47.9067L47.9067 70.2102H42.191L42.191 104.505Z" fill="#3452FF"/>
<path opacity="0.3" d="M42.191 104.505H47.9067L47.9067 70.2102H42.191L42.191 104.505Z" fill="white"/>
<path d="M103.737 70.2101H40.99V73.2438H103.737V70.2101Z" fill="#3452FF"/>
<path opacity="0.6" d="M103.737 70.2101H40.99V73.2438H103.737V70.2101Z" fill="white"/>
<path d="M42.191 70.2101H39.7921V104.505H42.191V70.2101Z" fill="#3452FF"/>
<path opacity="0.5" d="M42.191 70.2101H39.7921V104.505H42.191V70.2101Z" fill="white"/>
<path d="M105.412 104.505H111.127V70.2102H105.412V104.505Z" fill="#3452FF"/>
<path opacity="0.3" d="M105.412 104.505H111.127V70.2102H105.412V104.505Z" fill="white"/>
<path d="M107.384 70.8665H112.567V68.2325H107.384V70.8665Z" fill="#3452FF"/>
<path opacity="0.3" d="M107.384 70.8665H112.567V68.2325H107.384V70.8665Z" fill="white"/>
<path d="M101.377 74.8845H75.4894V104.508H101.377V74.8845Z" fill="#3452FF"/>
<path opacity="0.5" d="M101.377 74.8845H75.4894V104.508H101.377V74.8845Z" fill="white"/>
<path d="M103.013 74.8845H101.377V104.508H103.013V74.8845Z" fill="#3452FF"/>
<path opacity="0.2" d="M103.013 74.8845H101.377V104.508H103.013V74.8845Z" fill="white"/>
<path d="M99.7405 84.615H77.1252V91.4669H99.7405V84.615Z" fill="#3452FF"/>
<path d="M99.7405 76.4983H77.1252V83.3502H99.7405V76.4983Z" fill="#3452FF"/>
<path d="M99.7405 92.7316H77.1252V99.5835H99.7405V92.7316Z" fill="#3452FF"/>
<g opacity="0.7">
<path d="M99.7405 84.6149H77.1253V91.4668H99.7405V84.6149Z" fill="white"/>
<path d="M99.7405 76.4983H77.1252V83.3502H99.7405V76.4983Z" fill="white"/>
<path d="M99.7405 92.7316H77.1253V99.5834H99.7405V92.7316Z" fill="white"/>
</g>
<path d="M105.412 70.2101H103.013V104.505H105.412V70.2101Z" fill="#3452FF"/>
<path opacity="0.1" d="M107.992 70.2101H46.7146V104.505H107.992V70.2101Z" fill="white"/>
<path opacity="0.5" d="M105.412 70.2101H103.013V104.505H105.412V70.2101Z" fill="white"/>
<path d="M107.381 68.2325H37.8192V70.8664H107.381V68.2325Z" fill="#3452FF"/>
<path opacity="0.6" d="M107.381 68.2325H37.8192V70.8664H107.381V68.2325Z" fill="white"/>
<path d="M88.506 79.1799H87.7223C87.5247 79.1799 87.3352 79.2585 87.1955 79.3983C87.0558 79.5382 86.9773 79.7279 86.9773 79.9257C86.9773 80.1235 87.0558 80.3131 87.1955 80.453C87.3352 80.5928 87.5247 80.6714 87.7223 80.6714H88.506C88.7036 80.6714 88.8931 80.5928 89.0328 80.453C89.1725 80.3131 89.251 80.1235 89.251 79.9257C89.251 79.7279 89.1725 79.5382 89.0328 79.3983C88.8931 79.2585 88.7036 79.1799 88.506 79.1799Z" fill="#3452FF"/>
<path d="M88.506 87.2966H87.7223C87.5247 87.2966 87.3352 87.3752 87.1955 87.5151C87.0558 87.6549 86.9773 87.8446 86.9773 88.0424C86.9773 88.2402 87.0558 88.4298 87.1955 88.5697C87.3352 88.7095 87.5247 88.7881 87.7223 88.7881H88.506C88.7036 88.7881 88.8931 88.7095 89.0328 88.5697C89.1725 88.4298 89.251 88.2402 89.251 88.0424C89.251 87.8446 89.1725 87.6549 89.0328 87.5151C88.8931 87.3752 88.7036 87.2966 88.506 87.2966Z" fill="#3452FF"/>
<path d="M88.506 95.4133H87.7223C87.5247 95.4133 87.3352 95.4918 87.1955 95.6317C87.0558 95.7715 86.9773 95.9612 86.9773 96.159C86.9773 96.3568 87.0558 96.5465 87.1955 96.6863C87.3352 96.8262 87.5247 96.9048 87.7223 96.9048H88.506C88.7036 96.9048 88.8931 96.8262 89.0328 96.6863C89.1725 96.5465 89.251 96.3568 89.251 96.159C89.251 95.9612 89.1725 95.7715 89.0328 95.6317C88.8931 95.4918 88.7036 95.4133 88.506 95.4133Z" fill="#3452FF"/>
<path opacity="0.3" d="M88.4584 79.9257C88.4584 80.0732 88.4148 80.2173 88.3329 80.34C88.251 80.4626 88.1347 80.5582 87.9985 80.6146C87.8624 80.6711 87.7126 80.6859 87.5681 80.6571C87.4236 80.6283 87.2908 80.5573 87.1867 80.453C87.0825 80.3487 87.0115 80.2158 86.9828 80.0712C86.954 79.9265 86.9688 79.7766 87.0252 79.6403C87.0815 79.504 87.177 79.3876 87.2995 79.3056C87.4221 79.2237 87.5661 79.1799 87.7134 79.1799C87.911 79.1799 88.1005 79.2585 88.2402 79.3983C88.38 79.5382 88.4584 79.7279 88.4584 79.9257Z" fill="#FAFAFA"/>
<path opacity="0.3" d="M88.4584 88.0424C88.4584 88.1899 88.4148 88.334 88.3329 88.4567C88.251 88.5793 88.1347 88.6749 87.9985 88.7313C87.8624 88.7878 87.7126 88.8026 87.5681 88.7738C87.4236 88.745 87.2908 88.674 87.1867 88.5697C87.0825 88.4654 87.0115 88.3325 86.9828 88.1879C86.954 88.0432 86.9688 87.8933 87.0252 87.757C87.0815 87.6207 87.177 87.5043 87.2995 87.4223C87.4221 87.3404 87.5661 87.2966 87.7134 87.2966C87.911 87.2966 88.1005 87.3752 88.2402 87.5151C88.38 87.6549 88.4584 87.8446 88.4584 88.0424Z" fill="#FAFAFA"/>
<path opacity="0.3" d="M88.4584 96.159C88.4584 96.3065 88.4148 96.4507 88.3329 96.5733C88.251 96.696 88.1347 96.7915 87.9985 96.848C87.8624 96.9044 87.7126 96.9192 87.5681 96.8904C87.4236 96.8617 87.2908 96.7906 87.1867 96.6863C87.0825 96.582 87.0115 96.4492 86.9828 96.3045C86.954 96.1598 86.9688 96.0099 87.0252 95.8736C87.0815 95.7374 87.177 95.6209 87.2995 95.5389C87.4221 95.457 87.5661 95.4133 87.7134 95.4133C87.911 95.4133 88.1005 95.4918 88.2402 95.6317C88.38 95.7715 88.4584 95.9612 88.4584 96.159Z" fill="#FAFAFA"/>
</g>
<defs>
<linearGradient id="paint0_linear_41_2160" x1="148.092" y1="158.743" x2="41.3272" y2="27.2167" gradientUnits="userSpaceOnUse">
<stop stop-color="#DAE3FE"/>
<stop offset="1" stop-color="#E9EFFD"/>
</linearGradient>
<clipPath id="clip0_41_2160">
<rect width="149" height="110" fill="white"/>
</clipPath>
</defs>
</svg>
