<svg width="155" height="112" viewBox="0 0 155 112" fill="none" xmlns="http://www.w3.org/2000/svg">
<g clip-path="url(#clip0_41_2630)">
<path d="M54.929 64.4353C54.929 64.4353 63.5226 46.2385 58.7452 34.5536C52.8858 20.2261 45.7716 15.57 45.7716 15.57C45.7716 15.57 27.9197 39.1841 54.929 64.4353Z" fill="#0172D0"/>
<path d="M50.3686 23.8058L50.0454 24.1498L46.6366 27.7648C45.4652 19.4816 45.7717 15.57 45.7717 15.57C45.2672 19.3156 45.2535 23.3712 45.5578 27.4804L43.1034 24.8679L45.6875 29.0413C45.8635 30.9273 46.1017 32.8208 46.3862 34.6932L43.0935 30.1781L46.6283 36.2133C46.8824 37.7463 47.1662 39.2596 47.4689 40.7397L42.3698 34.8018L47.9408 42.9727C48.396 45.0179 48.8755 46.9823 49.3618 48.8321L44.658 44.7229L50.1205 51.6249C50.6516 53.5041 51.1675 55.2196 51.6379 56.7186L46.887 51.388L52.213 59.3544C53.0233 61.4486 54.0915 63.6394 54.0915 63.6394L54.926 64.4368L55.5785 62.9439C54.8267 61.3747 54.2417 60.1096 53.7508 58.5201L55.9025 51.2137L53.1522 56.1483C52.6591 54.5037 52.1981 52.9119 51.7691 51.3729L55.69 43.2254L51.1721 49.2025C50.5889 47.0399 50.0651 44.9859 49.6008 43.0406L53.4936 35.6113L49.1646 41.1795C48.7736 39.4821 48.4254 37.8727 48.1199 36.3514L51.6098 28.3842L47.7033 34.2172C47.3326 32.2492 47.0256 30.4424 46.7823 28.7968L50.3686 23.8058Z" fill="#29245D"/>
<path d="M56.1058 63.5044C56.1058 63.5044 39.0497 66.0595 30.6047 59.3296C20.2501 51.0757 18.1547 44.1556 18.1547 44.1556C18.1547 44.1556 41.9206 35.3903 56.1058 63.5044Z" fill="#0172D0"/>
<path d="M23.8069 49.8996L24.1688 49.72L27.9721 47.8295C21.4474 44.8594 18.1547 44.1556 18.1547 44.1556C21.3578 44.6588 24.6961 45.6342 28.0002 46.8827L26.4502 44.2514L29.252 47.3686C30.7618 47.9721 32.2602 48.6254 33.7283 49.3134L30.8179 45.5361L34.9209 49.8799C36.1189 50.4601 37.2948 51.0591 38.4405 51.6664L34.7942 46.074L40.1566 52.5935C41.7279 53.4588 43.2263 54.3286 44.6329 55.1751L42.3985 50.3469L46.7436 56.4696C48.1608 57.3575 49.4452 58.1964 50.5628 58.9463L47.3361 53.7855L52.5892 60.056C54.1142 61.2246 55.6559 62.6262 55.6559 62.6262L56.1111 63.5006L54.725 63.6673C53.6173 62.6738 52.7197 61.8899 51.5316 61.1023L45.0001 61.0714L49.7275 60.0379C48.4949 59.2362 47.2982 58.4735 46.1374 57.7498L38.4822 58.9568L44.4971 56.7389C42.8598 55.7381 41.2984 54.8122 39.8129 53.9612L32.7571 55.3191L38.3904 53.1555C37.089 52.4243 35.8498 51.7491 34.6728 51.13L27.2718 52.027L33.0196 50.2715C31.4916 49.4899 30.0807 48.8001 28.7869 48.2022L23.8069 49.8996Z" fill="#29245D"/>
<path d="M55.5473 63.8371C55.5473 63.8371 41.1581 59.1244 37.2182 50.5235C32.3884 39.9755 33.5006 33.7261 33.5006 33.7261C33.5006 33.7261 55.6232 36.2126 55.5473 63.8371Z" fill="#0D439B"/>
<path d="M35.6455 40.4545H35.9998L39.7348 40.4696C35.801 35.5721 33.5015 33.7245 33.5015 33.7245C35.8124 35.3797 38.0407 37.4588 40.1339 39.7386L39.967 37.0658L40.9214 40.6114C41.8652 41.6782 42.7787 42.7811 43.6573 43.8991L42.8804 39.7922L44.3666 44.8119C45.0753 45.7391 45.7581 46.6715 46.4151 47.5987L45.7839 41.7792L47.3915 49.0018C48.2784 50.2986 49.1062 51.5713 49.8686 52.7859L50.0393 48.1245L51.0067 54.6349C51.7654 55.8895 52.4368 57.049 53.0142 58.0802L52.54 52.7648L54.1613 59.7482C54.8911 61.2653 55.5414 62.971 55.5414 62.971L55.5482 63.834L54.3942 63.4191C53.9223 62.2038 53.5301 61.2359 52.9125 60.1518L47.8043 57.5559L51.9224 58.6068C51.275 57.4933 50.6405 56.4246 50.0189 55.4006L43.5382 53.3291L49.1365 53.959C48.2519 52.5286 47.3966 51.1878 46.5706 49.9365L40.5011 48.221L45.7785 48.7423C45.0492 47.6575 44.3472 46.6406 43.6724 45.6915L37.5134 43.4804L42.718 44.3676C41.8319 43.153 41.0003 42.0566 40.2234 41.0784L35.6455 40.4545Z" fill="#29245D"/>
<path opacity="0.15" d="M80.4172 112C121.608 112 155 110.04 155 107.623C155 105.206 121.608 103.246 80.4172 103.246C39.2262 103.246 5.83435 105.206 5.83435 107.623C5.83435 110.04 39.2262 112 80.4172 112Z" fill="black"/>
<path d="M121.357 48.5914H46.1631V94.6036H121.357V48.5914Z" fill="#0096E2"/>
<path d="M121.357 48.5914H46.1631V60.0945H121.357V48.5914Z" fill="#023386"/>
<path d="M120.48 42.8399H47.0387C45.2747 42.8399 43.5826 43.5357 42.3338 44.7746C41.0851 46.0135 40.3815 47.6943 40.3774 49.4484V101.792C40.3768 101.981 40.4138 102.168 40.4863 102.343C40.5588 102.518 40.6653 102.677 40.7997 102.81C40.9341 102.944 41.0937 103.05 41.2694 103.122C41.4451 103.194 41.6334 103.231 41.8235 103.23H125.696C126.079 103.23 126.447 103.079 126.718 102.809C126.989 102.539 127.142 102.174 127.142 101.792V49.4484C127.142 45.8047 124.153 42.8399 120.48 42.8399ZM46.1655 93.1657V50.0293C46.1655 49.648 46.3178 49.2822 46.589 49.0126C46.8602 48.7429 47.228 48.5914 47.6115 48.5914H119.915C120.298 48.5914 120.666 48.7429 120.937 49.0126C121.208 49.2822 121.361 49.648 121.361 50.0293V93.1657C121.361 93.5471 121.208 93.9128 120.937 94.1824C120.666 94.4521 120.298 94.6036 119.915 94.6036H47.6115C47.4215 94.6039 47.2332 94.5669 47.0575 94.4948C46.8818 94.4227 46.7221 94.3168 46.5876 94.1832C46.453 94.0497 46.3463 93.8911 46.2735 93.7165C46.2007 93.5419 46.1632 93.3547 46.1632 93.1657H46.1655Z" fill="#3452FF"/>
<path d="M128.588 100.359H38.9329C38.7432 100.358 38.5552 100.395 38.3798 100.467C38.2044 100.538 38.045 100.644 37.9106 100.777C37.7763 100.91 37.6697 101.068 37.597 101.243C37.5242 101.417 37.4868 101.604 37.4868 101.792C37.4884 103.319 38.0989 104.782 39.1843 105.861C40.2697 106.94 41.7414 107.547 43.2764 107.549H124.244C125.779 107.547 127.25 106.94 128.336 105.861C129.421 104.782 130.032 103.319 130.034 101.792C130.034 101.604 129.996 101.417 129.924 101.243C129.851 101.068 129.744 100.91 129.61 100.777C129.476 100.644 129.316 100.538 129.141 100.467C128.965 100.395 128.778 100.358 128.588 100.359Z" fill="#233B78"/>
<path d="M77.9757 90.29H53.3942C53.0107 90.29 52.6428 90.1385 52.3717 89.8688C52.1005 89.5992 51.9481 89.2334 51.9481 88.8521V65.843C51.9481 65.4616 52.1005 65.0959 52.3717 64.8262C52.6428 64.5566 53.0107 64.4051 53.3942 64.4051H77.9757C78.3592 64.4051 78.727 64.5566 78.9982 64.8262C79.2694 65.0959 79.4217 65.4616 79.4217 65.843V88.8521C79.4217 89.2334 79.2694 89.5992 78.9982 89.8688C78.727 90.1385 78.3592 90.29 77.9757 90.29Z" fill="white"/>
<path d="M112.681 67.2839H85.206C85.0161 67.2839 84.828 67.2467 84.6526 67.1745C84.4771 67.1022 84.3177 66.9963 84.1834 66.8628C84.0491 66.7292 83.9426 66.5707 83.87 66.3963C83.7973 66.2218 83.7599 66.0349 83.7599 65.846C83.7599 65.6572 83.7973 65.4702 83.87 65.2958C83.9426 65.1213 84.0491 64.9628 84.1834 64.8293C84.3177 64.6958 84.4771 64.5899 84.6526 64.5176C84.828 64.4453 85.0161 64.4081 85.206 64.4081H112.681C113.065 64.4081 113.432 64.5596 113.704 64.8293C113.975 65.0989 114.127 65.4647 114.127 65.846C114.127 66.2274 113.975 66.5931 113.704 66.8628C113.432 67.1324 113.065 67.2839 112.681 67.2839Z" fill="white"/>
<path d="M112.681 73.0354H85.206C85.0161 73.0354 84.828 72.9982 84.6526 72.926C84.4771 72.8537 84.3177 72.7478 84.1834 72.6143C84.0491 72.4808 83.9426 72.3223 83.87 72.1478C83.7973 71.9734 83.7599 71.7864 83.7599 71.5976C83.7599 71.4087 83.7973 71.2218 83.87 71.0473C83.9426 70.8728 84.0491 70.7143 84.1834 70.5808C84.3177 70.4473 84.4771 70.3414 84.6526 70.2691C84.828 70.1969 85.0161 70.1597 85.206 70.1597H112.681C113.065 70.1597 113.432 70.3112 113.704 70.5808C113.975 70.8505 114.127 71.2162 114.127 71.5976C114.127 71.9789 113.975 72.3446 113.704 72.6143C113.432 72.8839 113.065 73.0354 112.681 73.0354Z" fill="white"/>
<path d="M112.681 78.787H85.206C85.0161 78.787 84.828 78.7498 84.6526 78.6775C84.4771 78.6052 84.3177 78.4993 84.1834 78.3658C84.0491 78.2323 83.9426 78.0738 83.87 77.8993C83.7973 77.7249 83.7599 77.5379 83.7599 77.3491C83.7599 77.1602 83.7973 76.9733 83.87 76.7988C83.9426 76.6244 84.0491 76.4659 84.1834 76.3323C84.3177 76.1988 84.4771 76.0929 84.6526 76.0206C84.828 75.9484 85.0161 75.9112 85.206 75.9112H112.681C113.065 75.9112 113.432 76.0627 113.704 76.3323C113.975 76.602 114.127 76.9677 114.127 77.3491C114.127 77.7304 113.975 78.0961 113.704 78.3658C113.432 78.6355 113.065 78.787 112.681 78.787Z" fill="white"/>
<path d="M112.681 84.5385H85.206C84.8224 84.5385 84.4546 84.387 84.1834 84.1173C83.9122 83.8477 83.7599 83.4819 83.7599 83.1006C83.7599 82.7192 83.9122 82.3535 84.1834 82.0839C84.4546 81.8142 84.8224 81.6627 85.206 81.6627H112.681C113.065 81.6627 113.432 81.8142 113.704 82.0839C113.975 82.3535 114.127 82.7192 114.127 83.1006C114.127 83.4819 113.975 83.8477 113.704 84.1173C113.432 84.387 113.065 84.5385 112.681 84.5385Z" fill="white"/>
<path d="M112.681 90.2899H85.206C84.8224 90.2899 84.4546 90.1385 84.1834 89.8688C83.9122 89.5991 83.7599 89.2334 83.7599 88.8521C83.7599 88.4707 83.9122 88.105 84.1834 87.8353C84.4546 87.5657 84.8224 87.4142 85.206 87.4142H112.681C113.065 87.4142 113.432 87.5657 113.704 87.8353C113.975 88.105 114.127 88.4707 114.127 88.8521C114.127 89.2334 113.975 89.5991 113.704 89.8688C113.432 90.1385 113.065 90.2899 112.681 90.2899Z" fill="white"/>
<path d="M77.9757 103.231H89.5442C90.3113 103.231 91.0469 102.928 91.5893 102.389C92.1316 101.849 92.4363 101.118 92.4363 100.355H75.0836C75.0836 101.118 75.3883 101.849 75.9307 102.389C76.4731 102.928 77.2087 103.231 77.9757 103.231Z" fill="#0172D0"/>
<path d="M141.537 72.5308L134.597 71.8872C134.597 71.8872 132.932 71.0574 131.638 71.8872C130.345 72.7171 130.25 73.3591 130.62 73.4511C130.991 73.5431 132.1 72.4387 132.656 72.5308C132.874 72.567 132.906 72.7171 132.865 72.8853C132.851 72.939 132.851 72.9955 132.865 73.0493C132.879 73.103 132.907 73.1522 132.946 73.192C132.985 73.2318 133.034 73.2608 133.087 73.2762C133.141 73.2916 133.198 73.2929 133.252 73.2799L134.414 72.9909L137.373 74.0403L140.704 74.4635L141.537 72.5308Z" fill="#C69C6D"/>
<path d="M141.548 65.5223C141.548 65.5223 138.16 70.6447 139.64 73.9573C141.121 77.2698 141.861 76.6256 141.861 76.6256C141.861 76.6256 145.748 76.7176 146.58 76.7176C147.412 76.7176 146.395 71.0128 145.84 70.3686C145.286 69.7243 141.548 65.5223 141.548 65.5223Z" fill="#FD4059"/>
<path d="M140.844 64.7567C140.844 64.7567 138.068 64.8404 138.451 61.0194C138.476 60.7433 138.57 60.4779 138.725 60.2476C138.88 60.0172 139.091 59.8294 139.338 59.7014C139.718 59.5113 140.224 59.4268 140.844 59.6962C142.324 60.3404 143.157 61.076 143.064 62.1804C142.972 63.2848 140.844 64.7567 140.844 64.7567Z" fill="#C69C6D"/>
<path d="M139.363 60.3405C139.363 60.3405 137.975 60.2484 139.178 58.0395C139.991 56.5481 143.712 58.1316 143.897 60.5238C144.081 62.916 144.452 64.7567 145.933 65.4922C147.414 66.2278 148.061 70.8288 148.892 70.9239C149.723 71.0189 145.654 72.5836 144.543 72.5836C143.432 72.5836 144.682 70.8816 143.109 68.3974C141.536 65.9132 140.611 63.7051 141.166 62.8767C141.347 62.6067 141.528 62.3268 141.69 62.0718C141.755 61.9714 141.793 61.8571 141.804 61.7385C141.814 61.62 141.795 61.5007 141.748 61.391C141.702 61.2813 141.63 61.1844 141.538 61.1085C141.446 61.0326 141.336 60.9801 141.219 60.9553C140.643 60.8286 139.93 60.6332 139.363 60.3405Z" fill="#29245D"/>
<path d="M140.751 105.883H142.231C142.231 105.883 144.544 93.647 144.267 88.9547C143.989 84.2623 145.025 76.7515 145.025 76.7515L141.583 76.7176C141.583 76.7176 140.149 82.7437 140.705 86.5165C141.26 90.2892 140.751 105.883 140.751 105.883Z" fill="#083796"/>
<path d="M145.054 105.929H146.534C146.534 105.929 147.645 100.686 147.089 96.6367C146.534 92.5879 146.441 89.3681 147.274 86.2404C148.107 83.1127 148.94 79.2479 146.534 76.6716H141.537C141.537 76.6716 141.676 84.9059 143.157 90.3345C144.638 95.7631 145.054 105.929 145.054 105.929Z" fill="#0056C5"/>
<path d="M140.797 105.837L138.03 107.827C137.993 107.856 137.966 107.895 137.952 107.94C137.938 107.984 137.939 108.032 137.953 108.076C137.968 108.12 137.995 108.159 138.033 108.187C138.07 108.215 138.116 108.231 138.162 108.233H141.969C142.027 108.233 142.083 108.21 142.126 108.17C142.168 108.13 142.193 108.076 142.196 108.018L142.281 105.84L140.797 105.837Z" fill="#29245D"/>
<path d="M145.224 105.791L142.777 107.548C142.743 107.573 142.717 107.608 142.704 107.647C142.691 107.687 142.691 107.73 142.704 107.77C142.717 107.81 142.742 107.845 142.776 107.869C142.81 107.894 142.852 107.907 142.894 107.907H146.261C146.312 107.907 146.362 107.888 146.399 107.852C146.436 107.816 146.458 107.768 146.459 107.717L146.535 105.791H145.224Z" fill="#29245D"/>
<path d="M143.111 68.3906C143.111 68.3906 141.907 67.7463 141.537 69.9544C141.167 72.1626 140.703 74.0033 140.703 74.0033L128.859 74.4635C128.859 74.4635 127.887 74.9689 132.004 75.4751C135.476 75.9021 139.983 75.626 141.488 75.5166C141.648 75.5047 141.803 75.4531 141.938 75.3665C142.073 75.28 142.184 75.1612 142.262 75.021C142.988 73.7076 144.858 69.9016 143.111 68.3906Z" fill="#C69C6D"/>
<path d="M135.06 74.2334C135.06 74.1733 135.036 74.1158 134.993 74.0733C134.951 74.0309 134.893 74.007 134.833 74.007H128.308L124.989 68.297C124.959 68.2464 124.912 68.208 124.856 68.1889C124.801 68.1698 124.74 68.1712 124.685 68.1929C124.652 68.2059 124.623 68.2258 124.598 68.2513C124.574 68.2767 124.555 68.307 124.544 68.3403C124.532 68.3735 124.528 68.4088 124.531 68.4438C124.535 68.4788 124.546 68.5126 124.564 68.543L128.029 74.4627H134.829C134.86 74.4631 134.89 74.4574 134.918 74.4461C134.946 74.4347 134.972 74.4178 134.993 74.3964C135.015 74.3751 135.032 74.3496 135.043 74.3216C135.055 74.2936 135.061 74.2636 135.06 74.2334Z" fill="#29245D"/>
<path d="M18.0454 97.8483L20.741 108.128H28.9508L31.4325 97.8483H18.0454Z" fill="#023386"/>
<path d="M31.1821 85.3464C31.1823 84.8176 31.0517 84.2968 30.8018 83.8301C30.5519 83.3633 30.1903 82.9648 29.7489 82.6698C30.0832 82.2547 30.2926 81.7542 30.3531 81.2259C30.4136 80.6976 30.3227 80.1631 30.0909 79.6839C29.8591 79.2048 29.4958 78.8006 29.0429 78.5178C28.59 78.2351 28.066 78.0855 27.5313 78.0861C27.4903 78.0861 27.4501 78.0906 27.4091 78.0921C27.5373 77.6704 27.5644 77.2247 27.4883 76.7907C27.4123 76.3567 27.2351 75.9464 26.971 75.5927C26.7068 75.2389 26.3631 74.9516 25.9673 74.7536C25.5715 74.5556 25.1346 74.4525 24.6915 74.4525C24.2485 74.4525 23.8115 74.5556 23.4157 74.7536C23.0199 74.9516 22.6762 75.2389 22.4121 75.5927C22.148 75.9464 21.9708 76.3567 21.8947 76.7907C21.8186 77.2247 21.8457 77.6704 21.9739 78.0921C21.9329 78.0921 21.8927 78.0861 21.8518 78.0861C21.3172 78.0856 20.7933 78.2353 20.3406 78.518C19.8878 78.8006 19.5246 79.2048 19.2928 79.6838C19.061 80.1628 18.9701 80.6972 19.0305 81.2254C19.0909 81.7535 19.3001 82.254 19.6341 82.669C19.1925 82.9643 18.8307 83.363 18.5806 83.83C18.3304 84.297 18.1996 84.818 18.1996 85.3471C18.1996 85.8763 18.3304 86.3973 18.5806 86.8643C18.8307 87.3313 19.1925 87.73 19.6341 88.0253C19.3001 88.4403 19.0909 88.9408 19.0305 89.4689C18.9701 89.9971 19.061 90.5315 19.2928 91.0105C19.5246 91.4895 19.8878 91.8936 20.3406 92.1763C20.7933 92.459 21.3172 92.6087 21.8518 92.6082H27.5313C28.0659 92.6087 28.5897 92.459 29.0425 92.1763C29.4952 91.8936 29.8584 91.4895 30.0902 91.0105C30.322 90.5315 30.4129 89.9971 30.3526 89.4689C30.2922 88.9408 30.0829 88.4403 29.7489 88.0253C30.1904 87.7298 30.552 87.3309 30.8019 86.8637C31.0518 86.3966 31.1824 85.8755 31.1821 85.3464Z" fill="#FD4059"/>
<path d="M27.8181 83.4454C27.7419 83.37 27.6388 83.3277 27.5313 83.3277C27.4238 83.3277 27.3208 83.37 27.2446 83.4454L25.0975 85.581V79.6968C25.0975 79.5897 25.0547 79.4871 24.9786 79.4114C24.9025 79.3357 24.7992 79.2932 24.6916 79.2932C24.5839 79.2932 24.4807 79.3357 24.4045 79.4114C24.3284 79.4871 24.2857 79.5897 24.2857 79.6968V82.5552L22.4428 80.7227C22.3658 80.652 22.2642 80.6137 22.1594 80.6158C22.0546 80.6179 21.9546 80.6602 21.8805 80.7339C21.8063 80.8076 21.7638 80.907 21.7617 81.0112C21.7596 81.1155 21.7981 81.2165 21.8692 81.2931L24.2857 83.6966V89.2112L22.5445 87.4761C22.4674 87.4054 22.3659 87.3671 22.261 87.3691C22.1562 87.3712 22.0563 87.4136 21.9821 87.4873C21.908 87.561 21.8654 87.6604 21.8633 87.7646C21.8612 87.8688 21.8998 87.9698 21.9709 88.0464L24.2857 90.3488V97.8453C24.2857 97.9523 24.3284 98.055 24.4045 98.1307C24.4807 98.2064 24.5839 98.2489 24.6916 98.2489C24.7992 98.2489 24.9025 98.2064 24.9786 98.1307C25.0547 98.055 25.0975 97.9523 25.0975 97.8453V86.6938C25.1275 86.6786 25.1555 86.6599 25.1809 86.638L27.8181 84.0157C27.8939 83.9399 27.9364 83.8374 27.9364 83.7305C27.9364 83.6236 27.8939 83.5211 27.8181 83.4454Z" fill="#29245D"/>
<path d="M31.5873 98.2518H17.7951C17.6874 98.2518 17.5842 98.2093 17.508 98.1336C17.4319 98.0579 17.3892 97.9553 17.3892 97.8482C17.3892 97.7412 17.4319 97.6385 17.508 97.5629C17.5842 97.4872 17.6874 97.4446 17.7951 97.4446H31.5873C31.6949 97.4446 31.7981 97.4872 31.8743 97.5629C31.9504 97.6385 31.9931 97.7412 31.9931 97.8482C31.9931 97.9553 31.9504 98.0579 31.8743 98.1336C31.7981 98.2093 31.6949 98.2518 31.5873 98.2518Z" fill="#29245D"/>
<path d="M85.0937 10.333C85.0375 10.7071 84.871 11.0561 84.6152 11.3361C84.3595 11.6161 84.026 11.8143 83.6569 11.9058C83.2879 11.9974 82.8998 11.978 82.5418 11.8502C82.1838 11.7224 81.8719 11.492 81.6457 11.188C81.4194 10.8839 81.2888 10.52 81.2705 10.1423C81.2522 9.76449 81.347 9.3898 81.5429 9.06558C81.7387 8.74135 82.0268 8.48215 82.3708 8.32075C82.7148 8.15935 83.0992 8.103 83.4754 8.15882C83.7253 8.1959 83.9653 8.28154 84.1819 8.41088C84.3984 8.54021 84.5872 8.71069 84.7375 8.91259C84.8878 9.11449 84.9966 9.34384 85.0577 9.58756C85.1188 9.83128 85.1311 10.0846 85.0937 10.333Z" fill="#3452FF"/>
<path d="M82.8738 11.021C82.8526 11.0079 82.8341 10.991 82.8191 10.9712L82.1788 10.1413C82.1459 10.0985 82.1315 10.0445 82.1386 9.99104C82.1458 9.93764 82.1741 9.88926 82.2171 9.85654C82.2602 9.82383 82.3145 9.80946 82.3683 9.81661C82.422 9.82375 82.4706 9.85182 82.5035 9.89464L83.002 10.5434L84.0399 9.51367C84.0782 9.47565 84.1302 9.45434 84.1843 9.45441C84.2384 9.45448 84.2903 9.47593 84.3285 9.51404C84.3668 9.55216 84.3882 9.60382 84.3881 9.65765C84.3881 9.71148 84.3665 9.76308 84.3282 9.80109L83.1256 10.9945C83.0933 11.0272 83.0507 11.048 83.0049 11.0533C82.9591 11.0587 82.9129 11.0483 82.8738 11.024V11.021Z" fill="white"/>
<path d="M96.3716 36.0323C96.3353 36.274 96.2277 36.4996 96.0625 36.6805C95.8972 36.8614 95.6817 36.9895 95.4432 37.0487C95.2048 37.1078 94.954 37.0953 94.7226 37.0128C94.4913 36.9302 94.2898 36.7813 94.1436 36.5848C93.9974 36.3884 93.913 36.1532 93.9012 35.9091C93.8894 35.665 93.9507 35.4228 94.0772 35.2133C94.2038 35.0038 94.39 34.8364 94.6123 34.7321C94.8346 34.6278 95.083 34.5915 95.3261 34.6276C95.6521 34.676 95.9454 34.8512 96.1414 35.1146C96.3375 35.3781 96.4203 35.7081 96.3716 36.0323Z" fill="#3452FF"/>
<path d="M94.9377 36.4766C94.9239 36.468 94.9118 36.457 94.902 36.4441L94.4885 35.9062C94.4672 35.8786 94.4578 35.8437 94.4623 35.8092C94.4669 35.7747 94.485 35.7434 94.5128 35.7222C94.5405 35.701 94.5757 35.6916 94.6104 35.6961C94.6451 35.7007 94.6766 35.7187 94.6979 35.7463L95.0203 36.1658L95.6903 35.5004C95.7152 35.4768 95.7485 35.4638 95.7829 35.4642C95.8174 35.4646 95.8503 35.4784 95.8747 35.5026C95.899 35.5268 95.9129 35.5596 95.9133 35.5938C95.9137 35.6281 95.9007 35.6612 95.8769 35.686L95.1 36.4615C95.0868 36.4747 95.0709 36.4849 95.0533 36.4914C95.0358 36.4979 95.017 36.5006 94.9983 36.4992C94.9766 36.4965 94.9558 36.4888 94.9377 36.4766Z" fill="white"/>
<path d="M125.405 13.3415C125.369 13.583 125.261 13.8083 125.096 13.989C124.931 14.1697 124.715 14.2977 124.477 14.3567C124.239 14.4157 123.988 14.4032 123.757 14.3206C123.526 14.2381 123.325 14.0893 123.178 13.893C123.032 13.6967 122.948 13.4618 122.936 13.2179C122.924 12.974 122.986 12.732 123.112 12.5227C123.238 12.3133 123.424 12.1459 123.646 12.0417C123.868 11.9374 124.117 11.9009 124.36 11.9368C124.685 11.9855 124.979 12.1607 125.175 12.4241C125.371 12.6875 125.453 13.0174 125.405 13.3415Z" fill="#3452FF"/>
<path d="M123.97 13.7859C123.956 13.7774 123.944 13.7667 123.934 13.7542L123.521 13.2155C123.499 13.1878 123.49 13.1529 123.495 13.1184C123.499 13.0838 123.518 13.0526 123.546 13.0315C123.573 13.0104 123.609 13.0011 123.643 13.0058C123.678 13.0105 123.709 13.0287 123.731 13.0564L124.052 13.4751L124.723 12.8097C124.748 12.7861 124.781 12.7733 124.816 12.7738C124.85 12.7744 124.883 12.7883 124.907 12.8126C124.932 12.837 124.945 12.8698 124.946 12.904C124.946 12.9383 124.933 12.9713 124.909 12.996L124.133 13.767C124.119 13.7802 124.103 13.7904 124.086 13.7969C124.068 13.8034 124.049 13.8061 124.03 13.8047C124.009 13.8039 123.988 13.7974 123.97 13.7859Z" fill="white"/>
<path d="M27.0851 30.1796C26.6653 30.1789 26.2551 30.0545 25.9064 29.8221C25.5576 29.5897 25.2859 29.2597 25.1256 28.8739C24.9653 28.4881 24.9235 28.0637 25.0056 27.6543C25.0877 27.2449 25.2899 26.8689 25.5868 26.5737C25.8837 26.2785 26.2618 26.0774 26.6736 25.9958C27.0853 25.9142 27.5121 25.9557 27.9001 26.1151C28.2881 26.2745 28.6199 26.5446 28.8537 26.8914C29.0874 27.2382 29.2125 27.6461 29.2133 28.0636C29.2127 28.6246 28.9883 29.1625 28.5893 29.5592C28.1903 29.9559 27.6494 30.179 27.0851 30.1796ZM27.0851 26.7848C26.8316 26.785 26.5838 26.8599 26.373 27.0001C26.1622 27.1403 25.998 27.3394 25.9011 27.5724C25.8042 27.8054 25.7789 28.0617 25.8284 28.309C25.878 28.5562 26.0002 28.7833 26.1795 28.9616C26.3589 29.1398 26.5873 29.2611 26.836 29.3103C27.0847 29.3594 27.3425 29.3341 27.5767 29.2376C27.811 29.1411 28.0112 28.9777 28.152 28.768C28.2929 28.5584 28.3681 28.3119 28.3681 28.0598C28.3667 27.7223 28.2309 27.3991 27.9905 27.1609C27.7501 26.9227 27.4245 26.7888 27.0851 26.7886V26.7848Z" fill="#3452FF"/>
<path d="M146.927 49.4258C146.72 49.426 146.518 49.3651 146.346 49.2511C146.174 49.137 146.04 48.9747 145.961 48.7849C145.882 48.595 145.861 48.3861 145.901 48.1845C145.942 47.983 146.041 47.7978 146.187 47.6525C146.333 47.5071 146.52 47.4082 146.722 47.3681C146.925 47.3281 147.135 47.3487 147.326 47.4274C147.517 47.5061 147.68 47.6394 147.795 47.8104C147.91 47.9813 147.971 48.1822 147.971 48.3878C147.97 48.6629 147.86 48.9268 147.665 49.1213C147.469 49.3159 147.204 49.4254 146.927 49.4258ZM146.927 47.7616C146.802 47.7615 146.68 47.7981 146.577 47.8668C146.473 47.9355 146.392 48.0332 146.345 48.1476C146.297 48.262 146.284 48.3879 146.308 48.5095C146.333 48.631 146.392 48.7426 146.481 48.8303C146.569 48.9179 146.681 48.9776 146.803 49.0018C146.925 49.026 147.052 49.0137 147.167 48.9663C147.282 48.919 147.38 48.8387 147.45 48.7357C147.519 48.6327 147.556 48.5116 147.556 48.3878C147.556 48.2219 147.489 48.0629 147.371 47.9455C147.253 47.8281 147.094 47.762 146.927 47.7616Z" fill="#3452FF"/>
<path d="M1.04398 42.0312C0.837322 42.0312 0.635307 41.9703 0.463488 41.8561C0.29167 41.7419 0.157767 41.5796 0.0787172 41.3898C-0.000332412 41.1999 -0.0209737 40.991 0.0193983 40.7895C0.0597704 40.5879 0.159345 40.4029 0.305527 40.2576C0.451709 40.1124 0.637924 40.0135 0.840628 39.9735C1.04333 39.9335 1.25342 39.9542 1.4443 40.0329C1.63518 40.1116 1.79829 40.2449 1.913 40.4158C2.0277 40.5868 2.08884 40.7877 2.08869 40.9932C2.08849 41.2685 1.97833 41.5326 1.78243 41.7272C1.58653 41.9219 1.32092 42.0312 1.04398 42.0312ZM1.04398 40.367C0.919434 40.367 0.797688 40.4037 0.694133 40.4726C0.590577 40.5414 0.509862 40.6391 0.462201 40.7536C0.41454 40.868 0.402071 40.9939 0.426369 41.1153C0.450667 41.2368 0.510637 41.3484 0.598704 41.4359C0.686771 41.5235 0.798976 41.5831 0.921128 41.6073C1.04328 41.6315 1.16989 41.619 1.28496 41.5717C1.40002 41.5243 1.49838 41.444 1.56757 41.341C1.63676 41.2381 1.67369 41.117 1.67369 40.9932C1.67369 40.8271 1.60735 40.6678 1.48925 40.5504C1.37116 40.433 1.21099 40.367 1.04398 40.367Z" fill="#3452FF"/>
<path d="M127.031 36.7202L126.338 34.491L124.14 33.6732L126.382 32.9837L127.204 30.7982L127.897 33.0275L130.095 33.8452L127.853 34.5355L127.031 36.7202Z" fill="#3452FF"/>
<path d="M68.5559 25.9829L68.2175 24.8966L67.1462 24.4975L68.2395 24.161L68.6401 23.0958L68.9785 24.1822L70.0497 24.5812L68.9572 24.9177L68.5559 25.9829Z" fill="#3452FF"/>
<path d="M17.3141 65.8943L16.9757 64.8072L15.9044 64.4081L16.9969 64.0724L17.3983 63.0065L17.7367 64.0936L18.8079 64.4919L17.7146 64.8283L17.3141 65.8943Z" fill="#3452FF"/>
<path d="M131.717 87.47L131.379 86.3837L130.308 85.9846L131.4 85.6482L131.802 84.5829L132.14 85.67L133.211 86.0684L132.118 86.4048L131.717 87.47Z" fill="#3452FF"/>
<path d="M37.4845 2.88708L37.1461 1.80074L36.0748 1.40167L37.1681 1.06521L37.5687 0L37.9071 1.08709L38.9783 1.48541L37.8858 1.82187L37.4845 2.88708Z" fill="#3452FF"/>
</g>
<defs>
<clipPath id="clip0_41_2630">
<rect width="155" height="112" fill="white"/>
</clipPath>
</defs>
</svg>
